<svg id="Layer_1" data-name="Layer 1" xmlns="http://www.w3.org/2000/svg" viewBox="0 0 486.83 485.94"><defs><style>.cls-1{fill:#fb823d;}</style></defs><path class="cls-1" d="M452.81,27.53a20,20,0,0,1,20,20V453.47a20,20,0,0,1-20,20H46.87a20,20,0,0,1-20-20V47.53a20,20,0,0,1,20-20H452.81m0-20H46.87a40,40,0,0,0-40,40V453.47a40,40,0,0,0,40,40H452.81a40,40,0,0,0,40-40V47.53a40,40,0,0,0-40-40Z" transform="translate(-6.87 -7.53)"/><path class="cls-1" d="M453.7,109.84a20,20,0,0,1,20,20V449.15a20,20,0,0,1-20,20H134.39a20,20,0,0,1-20-20V129.84a20,20,0,0,1,20-20H453.7m0-20H134.39a40,40,0,0,0-40,40V449.15a40,40,0,0,0,40,40H453.7a40,40,0,0,0,40-40V129.84a40,40,0,0,0-40-40Z" transform="translate(-6.87 -7.53)"/><path class="cls-1" d="M274.93,203.12A71.89,71.89,0,1,1,203,275a72,72,0,0,1,71.89-71.88m0-20A91.89,91.89,0,1,0,366.81,275a91.89,91.89,0,0,0-91.88-91.88Z" transform="translate(-6.87 -7.53)"/><path class="cls-1" d="M274.92,290.05A15,15,0,1,1,290,275,15.06,15.06,0,0,1,274.92,290.05Z" transform="translate(-6.87 -7.53)"/><path class="cls-1" d="M274.93,265a10,10,0,1,1-10.05,10,10.05,10.05,0,0,1,10.05-10m0-10a20,20,0,1,0,20,20,20,20,0,0,0-20-20Z" transform="translate(-6.87 -7.53)"/><path class="cls-1" d="M360,343.16h0m-8.8-16.36a7.54,7.54,0,0,0-5.34,2.21l-9.12,9.12a7.56,7.56,0,0,0,0,10.69l46.64,46.64a7.57,7.57,0,0,0,10.69,0l9.11-9.12a7.56,7.56,0,0,0,0-10.69L356.56,329a7.53,7.53,0,0,0-5.34-2.21Z" transform="translate(-6.87 -7.53)"/></svg>