<svg id="Layer_1" data-name="Layer 1" xmlns="http://www.w3.org/2000/svg" viewBox="0 0 487.36 469.62"><defs><style>.cls-1{fill:#fb823d;}.cls-2{fill:none;stroke:#fb823d;stroke-miterlimit:10;stroke-width:10px;}</style></defs><rect class="cls-1" x="75.58" y="242.95" width="74.43" height="37.6" rx="11.9"/><rect class="cls-1" x="73.6" y="61.67" width="130.56" height="37.6" rx="11.9" transform="translate(51.58 204.15) rotate(-90)"/><rect class="cls-1" x="299.19" y="62.34" width="130.56" height="37.6" rx="11.9" transform="translate(276.5 430.42) rotate(-90)"/><rect class="cls-1" x="204" y="242.95" width="74.43" height="37.6" rx="11.9"/><rect class="cls-1" x="338.69" y="242.95" width="74.43" height="37.6" rx="11.9"/><rect class="cls-1" x="74.83" y="356.56" width="74.43" height="37.6" rx="11.9"/><rect class="cls-1" x="203.25" y="356.56" width="74.43" height="37.6" rx="11.9"/><rect class="cls-1" x="337.94" y="356.56" width="74.43" height="37.6" rx="11.9"/><path class="cls-1" d="M454.18,87.68a20,20,0,0,1,20,20V444.81a20,20,0,0,1-20,20H46.82a20,20,0,0,1-20-20V107.68a20,20,0,0,1,20-20H454.18m0-20H46.82a40,40,0,0,0-40,40V444.81a40,40,0,0,0,40,40H454.18a40,40,0,0,0,40-40V107.68a40,40,0,0,0-40-40Z" transform="translate(-6.82 -15.19)"/><line class="cls-2" x1="8.38" y1="166.94" x2="476.88" y2="166.94"/></svg>