<?xml version="1.0" encoding="utf-8"?>
<!-- Generator: Adobe Illustrator 25.1.0, SVG Export Plug-In . SVG Version: 6.00 Build 0)  -->
<svg version="1.1" id="Layer_1" xmlns="http://www.w3.org/2000/svg" xmlns:xlink="http://www.w3.org/1999/xlink" x="0px" y="0px"
	 viewBox="0 0 800 800" style="enable-background:new 0 0 800 800;" xml:space="preserve">
<style type="text/css">
	.st0{fill:#FFCCCC;}
	.st1{fill:#FA823C;}
	.st2{fill:#D15B5B;}
	.st3{fill:#FA5C00;}
	.st4{fill:#CCC921;}
	.st5{fill:#C67777;}
	.st6{fill:#FA9E69;}
	.st7{fill:#DEDB45;}
	.st8{fill:#68EAE6;stroke:#D15B5B;stroke-width:5;stroke-miterlimit:10;}
	.st9{display:none;}
	.st10{display:inline;fill:#DEDB45;stroke:#ADFBFF;stroke-miterlimit:10;}
	.st11{display:inline;fill:#CCC921;}
	.st12{display:inline;fill:none;stroke:#D15B5B;stroke-width:16;stroke-miterlimit:10;}
	.st13{display:inline;}
	.st14{fill:#333333;}
	.st15{display:inline;fill:none;stroke:#68EAE6;stroke-width:15;stroke-miterlimit:10;}
	.st16{fill:#68EAE6;stroke:#68EAE6;stroke-miterlimit:10;}
	.st17{display:inline;fill:none;stroke:#333333;stroke-width:11;stroke-linecap:round;stroke-linejoin:round;stroke-miterlimit:10;}
	.st18{display:inline;fill:#E8E78E;}
	.st19{display:inline;fill:#DEDB45;}
	.st20{display:inline;fill:none;}
	.st21{fill:#F9593E;}
	.st22{display:none;fill:#FF9933;}
	.st23{display:none;fill:#E64D00;}
	.st24{display:none;fill:#FFFFFF;}
	.st25{fill:#FFC306;}
	.st26{fill:#0081D1;}
	.st27{fill:#E89351;}
	.st28{fill:#FF2B00;}
	.st29{fill:#062433;}
	.st30{fill:#68EAE6;}
	.st31{fill:#50C6CC;}
	.st32{fill:#E5FEFF;}
	.st33{fill:none;stroke:#F9593E;stroke-width:15;stroke-linecap:round;stroke-linejoin:round;stroke-miterlimit:10;}
	
		.st34{display:inline;fill:none;stroke:#F9593E;stroke-width:6;stroke-linecap:round;stroke-linejoin:round;stroke-miterlimit:10;stroke-dasharray:8,12,8,12,8,12;}
	.st35{display:inline;fill:#DEDB45;stroke:#68EAE6;stroke-width:15;stroke-linejoin:round;stroke-miterlimit:10;}
</style>
<g>
	<polygon class="st0" points="676,355 676,358.2 671.8,355 	"/>
	<path class="st1" d="M619,377h-14c-6.6,0-12-5.4-12-12V233c0-6.6,5.4-12,12-12h14c6.6,0,12,5.4,12,12v132
		C631,371.6,625.6,377,619,377z"/>
	<path class="st1" d="M676,358.2v246c0,10.9-8.8,19.7-19.7,19.7H262.7c-10.9,0-19.7-8.8-19.7-19.7V355l54.8-44l156.6-125.7
		L671.8,355L676,358.2z"/>
	<polygon class="st0" points="676,355 671.8,355 454.5,185.3 455.5,184.5 619.1,311 	"/>
	<path class="st2" d="M370.2,620h-47.4c-12,0-21.8-9.8-21.8-21.8V482.8c0-12,9.8-21.8,21.8-21.8h47.4c12,0,21.8,9.8,21.8,21.8v115.4
		C392,610.2,382.2,620,370.2,620z"/>
	<path class="st3" d="M701.9,363.3l-3.1,3.9c-4.1,5.2-11.6,6.1-16.8,2.1l-4-3.1l-4.2-3.3L456.5,193.3l-0.2-0.2L237.1,364.3
		c-5.2,4.1-12.8,3.1-16.8-2.1l-3.1-3.9c-4.1-5.2-3.1-12.8,2.1-16.8L446.6,164l0,0l3.6-2.8c0.4-0.3,0.8-0.6,1.2-0.8c0,0,0,0,0.1,0
		c3.9-1.6,8.4-1.1,11.9,1.6l6.8,5.3l229.6,179.2C705,350.5,705.9,358.1,701.9,363.3z"/>
	<path class="st4" d="M169,483L169,483c-44,0-80-36-80-80V265c0-44,36-80,80-80h0c44,0,80,36,80,80v138C249,447,213,483,169,483z"/>
	<path class="st5" d="M178,627h-5c-6.6,0-12-5.4-12-12V354c0-6.6,5.4-12,12-12h5c6.6,0,12,5.4,12,12v261
		C190,621.6,184.6,627,178,627z"/>
	<path class="st5" d="M181.4,445l-1.9,1.7c-4.9,4.5-12.5,4.1-17-0.7l-34.5-37.7c-4.5-4.9-4.1-12.5,0.7-17l1.9-1.7
		c4.9-4.5,12.5-4.1,17,0.7l34.5,37.7C186.6,432.9,186.3,440.5,181.4,445z"/>
	<path class="st6" d="M676,358.2v246c0,10.9-8.8,19.7-19.7,19.7H454V185.7l0.5-0.4L671.8,355L676,358.2z"/>
	<path class="st3" d="M701.9,363.3l-3.1,3.9c-4.1,5.2-11.6,6.1-16.8,2.1l-4-3.1l-4.2-3.3L456.5,193.3l-0.2-0.2L454,195v-35.4
		c3.2-0.6,6.6,0.2,9.4,2.3l6.8,5.3l229.6,179.2C705,350.5,705.9,358.1,701.9,363.3z"/>
	<path class="st7" d="M700,648H101c-6.6,0-12-5.4-12-12v-18c0-6.6,5.4-12,12-12h599c6.6,0,12,5.4,12,12v18
		C712,642.6,706.6,648,700,648z"/>
	<path class="st4" d="M712,618v18c0,6.6-5.4,12-12,12H401v-42h299C706.6,606,712,611.4,712,618z"/>
	<g>
		<g>
			<path class="st1" d="M642.2,95.7c19.8,0.1,35.9,16.2,36,36C678.2,168,612,204,612,204s-66.2-36.5-66.2-72.3c0-19.9,16.1-36,36-36
				l0,0c12.2-0.1,23.5,6,30.2,16.2C618.7,101.7,630,95.6,642.2,95.7z"/>
		</g>
		<g>
			<path class="st3" d="M678.2,131.7C678.2,168,612,204,612,204v-92.1c6.7-10.2,18-16.3,30.2-16.2C662,95.8,678.1,111.8,678.2,131.7
				z"/>
		</g>
	</g>
	<path class="st8" d="M580.2,446h-47.4c-12,0-21.8-9.8-21.8-21.8v-47.4c0-12,9.8-21.8,21.8-21.8h47.4c12,0,21.8,9.8,21.8,21.8v47.4
		C602,436.2,592.2,446,580.2,446z"/>
</g>
<g class="st9">
	<path class="st10" d="M600.3,655H224.7c-24.7,0-44.7-20-44.7-44.7V348.7c0-24.7,20-44.7,44.7-44.7h375.6c24.7,0,44.7,20,44.7,44.7
		v261.6C645,635,625,655,600.3,655z"/>
	<path class="st11" d="M645,348.7v261.6c0,24.7-20,44.7-44.7,44.7H403.5V304h196.8C625,304,645,324,645,348.7z"/>
	<path class="st12" d="M341,394h130c6.6,0,12-5.4,12-12v-66c0-6.6-5.4-12-12-12H341c-6.6,0-12,5.4-12,12v66
		C329,388.6,334.4,394,341,394z"/>
	<g class="st13">
		<path class="st3" d="M440.8,118.7c-11.7-31.4,13.4-50.6,45.2-34.5l22.4,11.3l22.4,11.3c31.7,16.1,46.3,55.3,26.2,70.6l-14.2,10.8
			l-14.2,10.8c-20.1,15.3-59.8-4.7-71.4-36.1l-8.2-22.2L440.8,118.7z"/>
		<path class="st3" d="M362.7,119c12-31.8-13.1-51-45.2-34.5l-22.7,11.6l-22.7,11.6c-32.1,16.5-47.2,56.2-27.1,71.6l14.2,10.8
			l14.2,10.8c20.1,15.3,60.2-5.2,72.3-37l8.5-22.4L362.7,119z"/>
		<path class="st6" d="M329.6,109.6c34.2-54.1,119.7-54.1,153.9,0l24.1,38.2l24.1,38.2c34.2,54.1-8.5,121.8-76.9,121.8h-48.3h-48.3
			c-68.4,0-111.1-67.7-76.9-121.8l24.1-38.2L329.6,109.6z"/>
		<path class="st1" d="M454.8,307.8H410V69.1c28.7,1,57,14.5,73.5,40.5l24.1,38.2l24.1,38.2C565.9,240.1,523.2,307.8,454.8,307.8z"
			/>
		<g>
			<g>
				<path class="st14" d="M420.9,211.7c7.4,0.1,13.3,4.8,13.3,10.5c-0.1,7.8-13.5,13.8-20.6,16.4c-2.7,1-5.6,1-8.3-0.1
					c-7-2.7-20.4-9-20.3-16.6c0-5.7,6.1-10.4,13.5-10.3l0,0c3,0,5.9,0.8,8.2,2.2c1.8,1.1,4.2,1.1,6,0
					C415,212.4,417.9,211.7,420.9,211.7z"/>
			</g>
		</g>
		<ellipse class="st14" cx="445" cy="165.7" rx="16" ry="19.6"/>
		<ellipse class="st14" cx="373" cy="165.7" rx="16" ry="19.6"/>
		<rect x="405" y="234.2" class="st14" width="10" height="50.8"/>
		<path class="st3" d="M508,318.8c0,11.1-9.8,20.1-22,20.1c-2.1,0-4.1-0.3-6-0.8c-3.8,5.9-10.9,9.9-19,9.9c-7.4,0-13.9-3.3-17.9-8.4
			c-2.2,0.7-4.6,1.1-7.1,1.1c-12.2,0-22-9-22-20.1c0-8.1,5.2-15.1,12.8-18.3c3.4-11.5,17.4-20.1,34.2-20.1c15.7,0,29,7.6,33.4,18v0
			C502.4,303.2,508,310.4,508,318.8z"/>
		<path class="st3" d="M403.6,318.8c0,11.1-9.8,20.1-22,20.1c-2.1,0-4.1-0.3-6-0.8c-3.8,5.9-10.9,9.9-19,9.9
			c-7.4,0-13.9-3.3-17.9-8.4c-2.2,0.7-4.6,1.1-7.1,1.1c-12.2,0-22-9-22-20.1c0-8.1,5.2-15.1,12.8-18.3c3.4-11.5,17.4-20.1,34.2-20.1
			c15.7,0,29,7.6,33.4,18v0C398,303.2,403.6,310.4,403.6,318.8z"/>
	</g>
	<path class="st15" d="M180,394.4c48.1-2.1,86.5-41.8,86.5-90.4"/>
	<g class="st13">
		<g>
			<path class="st16" d="M637,402c-54,0-98-44-98-98h15c0,45.8,37.2,83,83,83c2.5,0,4.9-0.1,7.3-0.3l1.4,14.9
				C642.8,401.9,639.9,402,637,402z"/>
		</g>
	</g>
	<path class="st15" d="M266.4,655c0.1-1.7,0.1-3.3,0.1-5c0-48.6-38.4-88.3-86.5-90.4"/>
	<path class="st15" d="M546.6,655c-0.1-1.7-0.1-3.3-0.1-5c0-50,40.5-90.5,90.5-90.5c2.7,0,5.4,0.1,8,0.4"/>
	
		<image style="display:inline;overflow:visible;" width="4" height="361" xlink:href="3561040C.png"  transform="matrix(1 0 0 1 516 299)">
	</image>
	
		<image style="display:inline;overflow:visible;" width="4" height="361" xlink:href="3561040D.png"  transform="matrix(1 0 0 1 292 303)">
	</image>
	<path class="st17" d="M353.5,237.5c0,24.3,23.1,44,51.5,44s51.5-19.7,51.5-44"/>
</g>
<g class="st9">
	<path class="st18" d="M252.5,314.5v418l-137-54c-8.3,0-15-6.7-15-15l-4-388c0-8.3,6.7-15,15-15L252.5,314.5z"/>
	<path class="st11" d="M696.5,273.5l-2,192l-2,196c0,8.3-6.7,15-5.3,11.2l-146.7,57.8v-418l141-54
		C689.8,258.5,696.5,265.2,696.5,273.5z"/>
	<path class="st19" d="M540.5,312.5v418l-137-54c-2.5,0-4.9-0.6-7-1.7v-416c1-0.2,2-0.3,3-0.3L540.5,312.5z"/>
	<path class="st11" d="M396.5,258.8v416c-2.1,1.1-4.5,1.7-7,1.7l-137,54v-418l141-54C394.5,258.5,395.5,258.6,396.5,258.8
		C396.5,258.8,396.5,258.8,396.5,258.8z"/>
	<line class="st20" x1="396.5" y1="681.5" x2="396.5" y2="674.8"/>
	<g class="st13">
		<g>
			<g>
				<path class="st6" d="M623.2,154.8c0,48.7-100.1,161.2-100.1,161.2S423,203.5,423,154.8c0-48.7,44.8-88.2,100.1-88.2
					C578.4,66.6,623.2,106.1,623.2,154.8z"/>
				<path class="st21" d="M623.2,154.8c0-48.7-44.8-88.2-100.1-88.2V316C523.1,316,623.2,203.5,623.2,154.8z"/>
				<path class="st22" d="M609.5,155.5c0,42-38.7,76.1-86.4,76.1c-47.7,0-86.4-34.1-86.4-76.1c0-42,38.7-76.1,86.4-76.1
					C570.8,79.4,609.5,113.5,609.5,155.5z"/>
				<path class="st23" d="M606.5,155.5c0,40.6-37.3,73.5-83.4,73.5c-46.1,0-83.4-32.9-83.4-73.5c0-40.6,37.3-73.5,83.4-73.5
					C569.1,82,606.5,114.9,606.5,155.5z"/>
				<path class="st24" d="M598.9,155.5c0,36.9-33.9,66.8-75.8,66.8s-75.8-29.9-75.8-66.8s33.9-66.8,75.8-66.8
					S598.9,118.6,598.9,155.5z"/>
			</g>
			<g class="st9">
				<g class="st13">
					<path class="st25" d="M460.9,164.3c6.2-9.6,37.7-10.1,66.3,0c28.7,10.1,48.7,16.4,48.1,28.1c-0.6,11.7-55.1,7.6-83.5,5.2
						C463.5,195.1,451.6,178.7,460.9,164.3z"/>
					<path class="st26" d="M476,181.6c0,0,96.8-1.1,101.8-1.1c1.8,0-17-22.9-19.5-23c-2.5-0.1-98.8,0.4-98.8,0.4
						C458.4,159.2,476,181.6,476,181.6z"/>
					<path class="st27" d="M508,136c5.1-2.2,10.5-8.1,11.1-9.8c0.6-1.6-6.8-4.9-8.7-5c-1.9-0.2-7.3,1.5-10.5,1.5
						c-2.6,0-0.5-3.1,4-4.8c6-2.3,21.4,4.3,21.8,8.1c0.4,3.8-12.7,15.5-16.3,16.8C505.7,144,503.6,137.9,508,136z"/>
					<path class="st27" d="M489.4,141.1c-0.4,1.6,11.3,14.3,14.2,18.3c3.2,4.4-1.2,13.9,1.9,13.9c2,0,10.5,3,13.6,2.2
						c3.1-0.8,10.5-13.7,9-15.7c-1.9-2.5-5.5-2.8-8.4-3.1c-1.8-0.2-5.1-0.4-5.8-1c-1-0.9,0-5.2-1.8-10.4c-1.4-4.1-3.8-9.4-4.2-9.4
						C507,136,490,138.8,489.4,141.1z"/>
					<path class="st27" d="M517.6,155.4c0,0,23.2-11.3,27.8-11.3c2.4,0,19,16.3,22.5,17.9c3.5,1.6,10.1-0.1,11.4,0.5
						c2,1-10,4.6-13.8,5.4c-3.7,0.8-2.9-4.2-5-5.1c-6.9-2.9-9.3-2.6-13.3-6.8c-1.5-1.6-2.9-3.5-2.9-3.5s-19,15.1-20.4,15.4
						C522.7,168.2,517.6,155.4,517.6,155.4z"/>
					<path class="st27" d="M521.9,161.7c6.2,0.5,22,1,23,1.9c1,0.9,25.2,9.3,26.9,9.4c7.8,0.8,13-1.3,14.8,0.1
						c1.7,1.4-8.7,2.6-10.9,5.1c-1.9,2.2-4.6-0.7-7-1c-2.4-0.3-13.5-0.9-17.3-1.7c-5.6-1.2-7.6-3.9-9.3-4.6
						c-1.7-0.7-22.5,5.4-27.9,5.1c-5.3-0.3-13.4,0.6-9.3-10.3C508.9,155,517.2,161.3,521.9,161.7z"/>
					<path class="st27" d="M489.4,139.8c0,0-1.4,3-1.5,7.2c-0.2,6.3,0.8,14.8,0.6,16c-0.3,2-5,12-7.2,12.7c-2.2,0.7-11,0.7-11.1,3.2
						c-0.2,2.7,10.6,1.3,13,0.9c2.5-0.4,11.7-13.5,11.7-17.5c0-9.3,1.3-16.5,1.3-16.5S498.6,137.3,489.4,139.8z"/>
					<path class="st27" d="M500.5,131.9c0.6,2.5,6,9.3,6,9.3s-8.4,0-9.3,0c-0.9,0-3.7-8.9-2.2-9.5
						C496.6,131.2,500,129.6,500.5,131.9z"/>
					<path class="st27" d="M485.2,123.5c-1.2,3.1,5.6,11.6,13.9,11.2c8.2-0.3,4.4-12.6,2.3-13.5
						C499.1,120.3,488.2,115.8,485.2,123.5z"/>
					<path class="st25" d="M490.7,122.5c0,0,3.6,5.8,3.6,8.7c0,1.5-9.5,4.3-11.1,3.3c0,0,2.9-2.5,0.8-8.6
						C482.7,121.9,490.7,122.5,490.7,122.5z"/>
					<path class="st28" d="M476,128.1c-1.1,2.2,37-6.5,35.8-7.5c-1.1-1-12,1-12.2-2.2c-0.3-3.9-5.1-4.9-9.4-4.2
						c-4.3,0.8-7.3,3.6-6.2,8C484.5,123.6,476.7,126.8,476,128.1z"/>
					<path class="st29" d="M489.4,139.8c3.3,0.8,5.1,3.4,5.6,8.7c0.3,3.2,0.3,5.5,0.3,5.5c2.2,2.4,8,4,7.1,9.9
						c-0.8,5.6,0.8,10.9,4.5,11.8c1.9,0.5-6.5-2.5,2-10.9c4.6-4.6,13-3.1,13-3.1s-4.7-3.9-2.7-7c0.7-1.1-7.6-1.2-4-5.2
						c3.5-3.7,1.1-5.2-1.8-8.9c-1.8-2.4-5.5-4.6-5.5-4.6c-0.6,0.1-2.3,0.3-2.3,0.3c3.1,2.3,7.5,6.6,1.2,8.3c-10.4,2.7-12-5.3-13-5.7
						C493,138.5,489.4,139.8,489.4,139.8z"/>
				</g>
			</g>
		</g>
		<g>
			<g>
				<path class="st30" d="M494,221.1c-18.9-0.4-34.1-14.1-33.9-30.8c0.3-22.6,35.1-39.8,53.2-47.3c6.8-2.8,14.5-2.7,21.3,0.4
					c17.9,8.1,52.1,26.5,51.8,48.8c-0.2,16.7-15.8,30-34.8,29.8l0,0c-7.8-0.1-15.1-2.4-21-6.6c-4.6-3.3-10.7-3.4-15.4-0.2
					C509.2,219,501.8,221.2,494,221.1z"/>
			</g>
		</g>
		
			<ellipse transform="matrix(0.9317 -0.3632 0.3632 0.9317 -9.2226 189.9621)" class="st31" cx="500.5" cy="119.5" rx="17.2" ry="19.6"/>
		
			<ellipse transform="matrix(0.7926 -0.6098 0.6098 0.7926 8.837 314.8516)" class="st32" cx="467.2" cy="144.4" rx="13" ry="15.5"/>
		<ellipse transform="matrix(0.633 -0.7741 0.7741 0.633 99.672 502.4784)" class="st32" cx="579.8" cy="146.1" rx="15.5" ry="13"/>
		
			<ellipse transform="matrix(0.3907 -0.9205 0.9205 0.3907 222.7744 576.9783)" class="st30" cx="547.3" cy="120.2" rx="19.6" ry="17.2"/>
		<g>
			<g>
				<path class="st31" d="M586.4,192.2c-0.2,16.7-15.8,30-34.8,29.8l-0.2,0c-7.7-0.1-15-2.5-20.8-6.6c-2.3-1.6-5-2.5-7.6-2.5
					L524,141c3.6,0.1,7.2,0.9,10.6,2.4C552.5,151.5,586.8,169.9,586.4,192.2z"/>
			</g>
		</g>
	</g>
	<g class="st13">
		<line class="st33" x1="194.5" y1="531.5" x2="138.5" y2="603.5"/>
		<line class="st33" x1="138.5" y1="531.5" x2="194.5" y2="603.5"/>
	</g>
	<path class="st34" d="M186.6,569.1c32.4,20.2,69.2,33.4,107.1,38.3c30.8,4,66.1,0.9,86.8-22.3c35.9-40.3,4.8-110.4,35.7-154.6
		c16-22.9,44.6-32.6,68.3-47.4c23.8-14.8,45.4-42.9,34.6-68.8"/>
	<path class="st35" d="M413.5,419.5"/>
</g>
</svg>
