<svg id="Layer_1" data-name="Layer 1" xmlns="http://www.w3.org/2000/svg" viewBox="0 0 456.56 484"><defs><style>.cls-1,.cls-2{fill:none;stroke-linejoin:round;}.cls-1{stroke:#fff;stroke-linecap:round;stroke-width:10px;}.cls-2{stroke:#fb823d;stroke-width:20px;}.cls-3{fill:#fb823d;}</style></defs><path class="cls-1" d="M386.05,324.85" transform="translate(-22.22 -8.95)"/><path class="cls-1" d="M340.85,369.46" transform="translate(-22.22 -8.95)"/><path class="cls-1" d="M390.37,220.23" transform="translate(-22.22 -8.95)"/><path class="cls-1" d="M380.3,326.31" transform="translate(-22.22 -8.95)"/><path class="cls-1" d="M376.8,371.74" transform="translate(-22.22 -8.95)"/><path class="cls-1" d="M419.92,417.05" transform="translate(-22.22 -8.95)"/><path class="cls-1" d="M345.64,417.05" transform="translate(-22.22 -8.95)"/><path class="cls-1" d="M379,324.85" transform="translate(-22.22 -8.95)"/><path class="cls-1" d="M317.17,369.46" transform="translate(-22.22 -8.95)"/><path class="cls-1" d="M384.25,410.73" transform="translate(-22.22 -8.95)"/><path class="cls-1" d="M250.08,410.73" transform="translate(-22.22 -8.95)"/><rect class="cls-2" x="75.9" y="213.96" width="305.13" height="260.04" rx="40"/><rect class="cls-2" x="172.52" y="295.3" width="111.9" height="95.36" rx="15"/><path class="cls-3" d="M253.18,29,458.74,211.53h0L42.26,213.12h0L253.17,29h0m0-20A20,20,0,0,0,240,13.88L29.1,198.05c-13.92,12.16-5.3,35.07,13.15,35.07h.09l416.47-1.59c18.36-.07,26.93-22.77,13.21-35L266.46,14a19.94,19.94,0,0,0-13.28-5Z" transform="translate(-22.22 -8.95)"/></svg>