<svg id="Layer_1" data-name="Layer 1" xmlns="http://www.w3.org/2000/svg" viewBox="0 0 316.52 482.55"><defs><style>.cls-1{fill:#fb823d;}</style></defs><path class="cls-1" d="M250.38,8.72c-87.27,0-158.26,71-158.26,158.26,0,56.94,82.08,237.73,104.13,281.19,19,37.51,42.53,43.11,54.85,43.11,21.35,0,40.79-15.33,54.75-43.17C326.76,406.4,408.63,223.28,408.63,167c0-87.26-71-158.26-158.25-158.26Zm.72,453.08c-9.45,0-19.86-9.83-28.55-27-29.3-57.75-101-223.11-101-267.85a128.78,128.78,0,1,1,257.55,0c0,45.41-74,216.85-99.66,267.91-8.44,16.85-19.06,26.91-28.39,26.91Z" transform="translate(-92.12 -8.72)"/><circle class="cls-1" cx="158.46" cy="162.56" r="55.98"/></svg>