<?xml version="1.0" encoding="utf-8"?>
<!-- Generator: Adobe Illustrator 25.1.0, SVG Export Plug-In . SVG Version: 6.00 Build 0)  -->
<svg version="1.1" id="Layer_1" xmlns="http://www.w3.org/2000/svg" xmlns:xlink="http://www.w3.org/1999/xlink" x="0px" y="0px"
	 viewBox="0 0 423 131" style="enable-background:new 0 0 423 131;" xml:space="preserve">
<style type="text/css">
	.st0{fill:#F9593E;}
	.st1{fill:#FA823C;}
	.st2{fill:#FFFFFF;}
	.st3{fill:#333333;}
	.st4{font-family:'Poppins-Bold';}
	.st5{font-size:41.5938px;}
</style>
<g>
	<path class="st0" d="M118,33.8v64.5c0,6-2.3,11.5-6.2,15.6c-4.2,4.5-10.2,7.3-16.8,7.3l-63.9,0c-12.9,0-23.5-10.6-23.5-23.5l0-63.9
		c0-6.6,2.8-12.6,7.3-16.8c4.1-3.8,9.6-6.2,15.6-6.2l64.5,0C107.7,10.8,118,21.2,118,33.8z"/>
</g>
<path class="st1" d="M15,17l96.9,96.9c-4.2,4.5-10.2,7.3-16.8,7.3l-63.9,0c-12.9,0-23.5-10.6-23.5-23.5l0-63.9
	C7.6,27.2,10.5,21.2,15,17z"/>
<g>
	<g>
		<g>
			<path class="st2" d="M71.7,99.4c-8.2,7.7-20.3,8.1-27.1,0.9c-9.2-9.7-1.5-31.4,3.1-42c1.7-4,5.1-7.1,9.2-8.6
				c10.9-3.9,33.1-10.2,42.1-0.6c6.8,7.2,5.7,19.3-2.5,27l0,0c-3.3,3.2-7.4,5.2-11.7,5.9c-3.3,0.5-5.9,3-6.6,6.2
				C77.3,92.3,75.1,96.3,71.7,99.4z"/>
		</g>
	</g>
	<ellipse transform="matrix(0.4155 -0.9096 0.9096 0.4155 -29.727 61.0108)" class="st2" cx="32.6" cy="53.6" rx="10.2" ry="11.6"/>
	<ellipse transform="matrix(0.1439 -0.9896 0.9896 0.1439 -52.5135 95.1781)" class="st2" cx="28.8" cy="77.9" rx="7.7" ry="9.2"/>
	
		<ellipse transform="matrix(0.9964 -8.501465e-02 8.501465e-02 0.9964 -2.4598 6.6856)" class="st2" cx="77.3" cy="32.2" rx="7.7" ry="9.2"/>
	<ellipse transform="matrix(0.9326 -0.3608 0.3608 0.9326 -8.9491 21.3679)" class="st2" cx="52.8" cy="34.7" rx="10.2" ry="11.6"/>
</g>
<text transform="matrix(1 0 0 1 127.1357 85.5586)" class="st3 st4 st5">Woof &amp; Meow</text>
</svg>
