<svg id="Layer_1" data-name="Layer 1" xmlns="http://www.w3.org/2000/svg" viewBox="0 0 465.84 391.92"><defs><style>.cls-1{fill:#fb823d;}.cls-2{fill:none;stroke:#fb823d;stroke-linecap:round;stroke-linejoin:round;stroke-width:20px;}</style></defs><path class="cls-1" d="M268.38,73.55h0L470.59,251.7,270.12,425.31h0L268.38,73.55m.11-20a20,20,0,0,0-20.11,20.14l1.74,351.76a20,20,0,0,0,20.11,19.94,19.68,19.68,0,0,0,13-4.92L483.69,266.82a20,20,0,0,0,.13-30.13L281.6,58.54a19.69,19.69,0,0,0-13.11-5Z" transform="translate(-24.75 -53.42)"/><path class="cls-1" d="M44.75,73.46h0L247,251.62,46.5,425.23h0L44.75,73.46m.12-20A20,20,0,0,0,24.75,73.56L26.5,425.33a20,20,0,0,0,20.11,19.94,19.68,19.68,0,0,0,13-4.92L260.06,266.73a20,20,0,0,0,.13-30.12L58,58.46a19.61,19.61,0,0,0-13.1-5Z" transform="translate(-24.75 -53.42)"/><line class="cls-2" x1="58.57" y1="110.11" x2="149.97" y2="190.15"/><line class="cls-2" x1="287.6" y1="113.11" x2="379" y2="193.15"/></svg>