<svg xmlns="http://www.w3.org/2000/svg" viewBox="0 0 479.98 385.03"><defs><style>.cls-1,.cls-3{fill:none;stroke-linecap:round;stroke-linejoin:round;stroke-width:10px;}.cls-1{stroke:#fff;}.cls-2{fill:#fb823d;}.cls-3{stroke:#fb823d;}</style></defs><g id="Layer_1" data-name="Layer 1"><path class="cls-1" d="M509.33,390.82" transform="translate(-5.65 -24.19)"/><path class="cls-1" d="M421.84,390.75" transform="translate(-5.65 -24.19)"/><path class="cls-1" d="M420.58,205.12" transform="translate(-5.65 -24.19)"/><path class="cls-1" d="M498.09,393.67" transform="translate(-5.65 -24.19)"/><path class="cls-1" d="M456.19,450.36" transform="translate(-5.65 -24.19)"/><path class="cls-1" d="M390.92,423.88" transform="translate(-5.65 -24.19)"/><path class="cls-1" d="M495.5,390.82" transform="translate(-5.65 -24.19)"/><path class="cls-1" d="M374.92,390.75" transform="translate(-5.65 -24.19)"/><path class="cls-1" d="M291.42,442.46" transform="translate(-5.65 -24.19)"/><path class="cls-1" d="M239.14,492.55" transform="translate(-5.65 -24.19)"/></g><g id="Layer_6" data-name="Layer 6"><path class="cls-1" d="M74.63,196.94" transform="translate(-5.65 -24.19)"/><path class="cls-1" d="M55.41,220.41" transform="translate(-5.65 -24.19)"/><path class="cls-2" d="M122.59,34.19c17.71,0,34.13,4.89,40.85,12.17.16.18.33.35.5.51,1.64,1.54,3.47,3.29,5.59,5.32,21.58,20.72,61.76,59.29,110.4,71.11l.64.13c17.37,3,21.24,12,22.81,16.42.64,3.41,4,25-9.18,41.53-11.05,13.83-31.14,20.84-59.73,20.84-6.2,0-12.87-.34-19.82-1-.32,0-.64-.05-1-.05-14.6,0-24.5,4.37-30.27,13.34-4.81,7.49-5.54,16.6-6.25,25.41-.68,8.56-1.4,17.41-5.77,24.39-8.3,13.28-31.62,21.53-60.87,21.53-23.93,0-47.84-5.54-65.61-15.2-13.09-7.12-28.78-19.79-29.19-39.71C14.38,166,32.35,119,61.76,64.21l.11-.2C73,42,100.55,34.19,122.59,34.19h0m0-10C95.5,24.19,65.7,34.38,53,59.48,24.38,112.68,4.3,162.22,5.72,231.13c.88,42.49,56,64.7,104.8,64.7,30.36,0,58.32-8.59,69.35-26.22,15.29-24.44-4.6-58.45,33.81-58.45,7.47.72,14.38,1.06,20.79,1.06,95.54,0,78.57-75,78.57-75-2.12-6.11-7.62-19.57-30.75-23.61-50.75-12.33-93.48-57.09-111.5-74C162,30,143,24.19,122.58,24.19Z" transform="translate(-5.65 -24.19)"/><circle class="cls-2" cx="174.13" cy="91.69" r="11.33"/><path class="cls-3" d="M134.53,33.34s13.12,161.41-58,137.4C52,162.46,56.71,78.8,60.91,61.44c18.85-36.16,73.62-28.1,73.62-28.1" transform="translate(-5.65 -24.19)"/><path class="cls-1" d="M316.27,368.22" transform="translate(-5.65 -24.19)"/><path class="cls-1" d="M443.6,338.16" transform="translate(-5.65 -24.19)"/><path class="cls-1" d="M450.46,337.67" transform="translate(-5.65 -24.19)"/><path class="cls-1" d="M436.13,338.26" transform="translate(-5.65 -24.19)"/><path class="cls-1" d="M449.92,355.11" transform="translate(-5.65 -24.19)"/><path class="cls-2" d="M401.72,224.3c15,0,33.62,5.22,41,19.85a2.12,2.12,0,0,0,.11.21c20.89,38.89,33.65,72.24,32.7,118.23-.27,12.94-10.74,21.32-19.47,26.07-12.35,6.71-29,10.56-45.73,10.56-19.72,0-35.93-5.54-41.29-14.11-2.77-4.44-3.23-10.17-3.72-16.24-.91-11.37-2.44-30.4-29-30.4-.32,0-.64,0-1,0-4.9.47-9.6.71-14,.71-19.52,0-33.16-4.63-40.55-13.77-8.5-10.5-6.61-24.7-6.15-27.45,1.06-2.89,3.53-7.87,14.11-9.71l.64-.14c35.64-8.66,64.83-36.67,80.51-51.73,1.47-1.41,2.8-2.69,4-3.8.18-.16.35-.33.51-.5,3.48-3.77,13.48-7.83,27.24-7.83m0-10c-14.68,0-28.25,4.17-34.59,11-12.93,12.14-43.6,44.26-80,53.11-16.6,2.89-20.55,12.55-22.07,16.93,0,0-12.18,53.85,56.38,53.85,4.6,0,9.56-.24,14.92-.76,27.56,0,13.29,24.4,24.26,41.94,7.91,12.65,28,18.81,49.77,18.81,35.05,0,74.57-15.94,75.2-46.43,1-49.44-13.39-85-33.89-123.17-9.15-18-30.54-25.32-50-25.32Z" transform="translate(-5.65 -24.19)"/><circle class="cls-2" cx="355.02" cy="255.9" r="8.13"/><path class="cls-3" d="M393.15,225.6s-9.42,115.82,41.61,98.59c17.61-5.94,14.23-66,11.21-78.43-13.52-25.94-52.82-20.16-52.82-20.16" transform="translate(-5.65 -24.19)"/></g></svg>