<svg xmlns="http://www.w3.org/2000/svg" viewBox="0 0 485.83 414.52"><defs><style>.cls-1,.cls-2{fill:none;stroke-linecap:round;stroke-linejoin:round;stroke-width:10px;}.cls-1{stroke:#fff;}.cls-2{stroke:#fb823d;}.cls-3{fill:#fb823d;}</style></defs><g id="Layer_1" data-name="Layer 1"><path class="cls-1" d="M468.42,383.33" transform="translate(-9.5 -21.13)"/><path class="cls-1" d="M343.63,383.33" transform="translate(-9.5 -21.13)"/><line class="cls-2" x1="411.2" y1="303.57" x2="480.83" y2="303.57"/><line class="cls-2" x1="376.39" y1="355.43" x2="446.02" y2="355.43"/><line class="cls-2" x1="345.49" y1="407.29" x2="415.11" y2="407.29"/><path class="cls-1" d="M394.48,230.12" transform="translate(-9.5 -21.13)"/><path class="cls-1" d="M459.19,385.67" transform="translate(-9.5 -21.13)"/><path class="cls-1" d="M380.54,385.67" transform="translate(-9.5 -21.13)"/><path class="cls-1" d="M424.81,432.19" transform="translate(-9.5 -21.13)"/><path class="cls-1" d="M348.55,432.19" transform="translate(-9.5 -21.13)"/><path class="cls-1" d="M457.07,383.33" transform="translate(-9.5 -21.13)"/><path class="cls-1" d="M319.32,383.33" transform="translate(-9.5 -21.13)"/><path class="cls-1" d="M388.19,425.71" transform="translate(-9.5 -21.13)"/><path class="cls-1" d="M250.44,425.71" transform="translate(-9.5 -21.13)"/><path class="cls-2" d="M189.91,332.16s79.41-24.54,169.76-94.88" transform="translate(-9.5 -21.13)"/></g><g id="Layer_5" data-name="Layer 5"><path class="cls-3" d="M372,72.6q3.24,4.22,6.9,9.16c18.35,24.85,48.42,69.26,89,141.29-6.62,6.67-21.05,18.94-47.6,37.32-31.81,22-71.54,46.32-111.85,68.4-45.95,25.16-90.59,46.32-129.11,61.2-43.49,16.8-79.49,25.68-104.13,25.68-15.9,0-26.1-3.46-30.31-10.29-6.33-10.26-10.24-17.2-12.69-22.51a31.12,31.12,0,0,1-2.62-7.24c2.09-2.77,9.81-8.54,16.09-13.24,31.94-23.88,97.28-72.75,180.5-226.74q.27,1.43.54,3c2,11.68,2.92,22,2.93,22.11l.13,1.55.38,1.52c3,12.16,14.18,25.24,31.67,25.24,14.43,0,29.38-8.71,47.05-27.41s39-48.75,63.14-89M348.69,21.13c-6.87,0-7.47,12.54,8.93,36.54C303,149.74,275.38,169,261.81,169c-9.78,0-12.25-10-12.25-10s-5.31-61.8-20-61.8c-3.65,0-7.88,3.83-12.74,13.39C57.67,414.41-31.2,320,27.85,415.85c8.55,13.87,25.2,19.8,47.34,19.8,125.68,0,427.31-191.61,415.35-213.08C404,67.25,360.68,28.73,360.68,28.73c-4.61-5.1-8.93-7.6-12-7.6Z" transform="translate(-9.5 -21.13)"/></g></svg>