<svg id="Layer_1" data-name="Layer 1" xmlns="http://www.w3.org/2000/svg" viewBox="0 0 358 458.19"><defs><style>.cls-1{fill:#fb823d;}.cls-2{fill:none;stroke:#fb823d;stroke-linecap:round;stroke-linejoin:round;stroke-width:20px;}</style></defs><path class="cls-1" d="M243.11,263.23h.81c29.34.09,55.29,5.19,77.16,15.16a135.13,135.13,0,0,1,47.51,36c25,29.57,35.3,66.45,39.57,92.19,2.16,13-4,26.19-13.8,29.39C343.1,452.74,291.85,461.25,242,461.25c-62.2,0-109.18-13-137.63-24-8.77-3.37-14.54-14.39-13.71-26.2,1.84-26.2,8.66-63.85,30.7-94.42a119.21,119.21,0,0,1,44.29-37.55C187,268.57,213,263.23,243.11,263.23m0-20c-142.06,0-168.36,109.11-172.38,166.44-1.45,20.71,9.59,39.77,26.48,46.27,28.37,10.9,78.41,25.31,144.81,25.31,45.68,0,99.11-6.82,158.56-26.28,19.18-6.29,31.11-28.81,27.31-51.67-9.71-58.53-46.38-159.64-183.9-160.07Z" transform="translate(-70.6 -23.06)"/><path class="cls-2" d="M154.83,392.16s80.29,44,188.17,0" transform="translate(-70.6 -23.06)"/><path class="cls-1" d="M248.68,43.06a90.74,90.74,0,1,1-90.74,90.74,90.84,90.84,0,0,1,90.74-90.74m0-20A110.74,110.74,0,1,0,359.41,133.8,110.74,110.74,0,0,0,248.68,23.06Z" transform="translate(-70.6 -23.06)"/></svg>