<svg id="Layer_1" data-name="Layer 1" xmlns="http://www.w3.org/2000/svg" viewBox="0 0 475.01 458.6"><defs><style>.cls-1{fill:#fb823d;}.cls-2{fill:none;stroke:#fb823d;stroke-miterlimit:10;stroke-width:20px;}</style></defs><path class="cls-1" d="M208.11,41.47a172.67,172.67,0,0,1,122.1,294.77A172.68,172.68,0,0,1,86,92a171.57,171.57,0,0,1,122.1-50.57m0-20c-106.41,0-192.67,86.26-192.67,192.67S101.7,406.82,208.11,406.82s192.68-86.27,192.68-192.68S314.52,21.47,208.11,21.47Z" transform="translate(-15.44 -21.47)"/><circle class="cls-1" cx="192.67" cy="192.67" r="42.19"/><path class="cls-1" d="M208.11,177a37.2,37.2,0,1,1-37.19,37.19A37.24,37.24,0,0,1,208.11,177m0-10a47.2,47.2,0,1,0,47.2,47.19A47.19,47.19,0,0,0,208.11,167Z" transform="translate(-15.44 -21.47)"/><rect class="cls-2" x="378.08" y="312.06" width="58.72" height="169.99" rx="18.96" transform="translate(-176.87 382.93) rotate(-45)"/></svg>