<svg id="Layer_1" data-name="Layer 1" xmlns="http://www.w3.org/2000/svg" viewBox="0 0 477.49 335.8"><defs><style>.cls-1{fill:#fb823d;}</style></defs><path class="cls-1" d="M164.62,404.64a1,1,0,0,1-.72-.31L21.45,256.7a1,1,0,0,1,0-1.42l11.75-11.34a1,1,0,0,1,1.41,0L177.1,391.6a1,1,0,0,1,.28.72,1,1,0,0,1-.31.7l-11.75,11.34A1,1,0,0,1,164.62,404.64Z" transform="translate(-11.17 -78.84)"/><path class="cls-1" d="M33.92,233.66a11,11,0,0,0-7.64,3.09L14.53,248.09a11,11,0,0,0-.28,15.55L156.71,411.28a11,11,0,0,0,15.55.27L184,400.21a11,11,0,0,0,.28-15.55L41.84,237a11,11,0,0,0-7.92-3.36Z" transform="translate(-11.17 -78.84)"/><path class="cls-1" d="M164.62,404.64a1,1,0,0,1-.72-.31l-11.34-11.75a1,1,0,0,1,0-1.41l313-302a.94.94,0,0,1,.69-.28,1,1,0,0,1,.72.3l11.34,11.75a1,1,0,0,1,.28.72,1,1,0,0,1-.3.7l-313,302.05A1,1,0,0,1,164.62,404.64Z" transform="translate(-11.17 -78.84)"/><path class="cls-1" d="M466.32,78.84a11,11,0,0,0-7.64,3.08L145.65,384a11,11,0,0,0-.28,15.55l11.34,11.76a11,11,0,0,0,15.55.27l313-302A11,11,0,0,0,485.58,94L474.24,82.2a11,11,0,0,0-7.92-3.36Z" transform="translate(-11.17 -78.84)"/></svg>