<svg id="Layer_1" data-name="Layer 1" xmlns="http://www.w3.org/2000/svg" viewBox="0 0 488.18 464.62"><defs><style>.cls-1{fill:#fb823d;}</style></defs><path class="cls-1" d="M156.09,329c4.73-14.54-1.26-33-13.63-42L26.2,202.56H169.9c15.29,0,31-11.39,35.69-25.94L250,40l44.41,136.67c4.72,14.54,20.4,25.93,35.69,25.93H473.8L357.54,287c-12.37,9-18.36,27.42-13.63,42l44.41,136.67L272.06,381.18a39.37,39.37,0,0,0-44.12,0L111.68,465.65Z" transform="translate(-5.91 -18.77)"/><path class="cls-1" d="M236.87,32h0M250,72.32l34.9,107.4c6.08,18.72,25.51,32.84,45.2,32.84H443l-91.36,66.37c-15.92,11.57-23.34,34.42-17.26,53.14l34.89,107.4-91.35-66.38a49.35,49.35,0,0,0-55.88,0l-91.35,66.38,34.89-107.4c6.08-18.72-1.34-41.57-17.26-53.14L57,212.56H169.9c19.69,0,39.12-14.12,45.2-32.84L250,72.32m0-53.55c-2.24,0-4.48,2.62-6.18,7.85L196.08,173.53c-3.4,10.47-15.18,19-26.18,19H15.42c-11,0-12.72,5.29-3.82,11.75l125,90.8c8.9,6.47,13.4,20.32,10,30.78L98.84,472.81c-2.21,6.82-1.07,10.58,2.46,10.58,1.88,0,4.45-1.07,7.54-3.32l125-90.8a29.41,29.41,0,0,1,32.36,0l125,90.8c3.09,2.25,5.66,3.32,7.54,3.32,3.53,0,4.67-3.76,2.46-10.58L353.42,325.89c-3.4-10.46,1.1-24.31,10-30.78l125-90.8c8.9-6.46,7.18-11.75-3.82-11.75H330.1c-11,0-22.78-8.56-26.18-19L256.18,26.62c-1.7-5.23-3.94-7.85-6.18-7.85Z" transform="translate(-5.91 -18.77)"/></svg>