<?xml version="1.0" encoding="utf-8"?>
<!-- Generator: Adobe Illustrator 25.1.0, SVG Export Plug-In . SVG Version: 6.00 Build 0)  -->
<svg version="1.1" id="Layer_1" xmlns="http://www.w3.org/2000/svg" xmlns:xlink="http://www.w3.org/1999/xlink" x="0px" y="0px"
	 viewBox="0 0 465 800" style="enable-background:new 0 0 465 800;" xml:space="preserve">
<style type="text/css">
	.st0{fill:#FA823C;}
	.st1{fill:#D18A5D;}
	.st2{fill:#D18F5E;}
	.st3{fill:#FEE3CE;}
	.st4{fill:#FFFFFF;}
	.st5{fill:#990000;}
	.st6{fill:#6B3A3A;}
	.st7{fill:#2D1E1E;}
	.st8{fill:none;stroke:#000000;stroke-width:7.7797;stroke-linecap:round;stroke-linejoin:round;stroke-miterlimit:10;}
	.st9{display:none;}
	.st10{display:inline;fill:#D18A5D;}
	.st11{display:inline;fill:#6B3A3A;}
	.st12{display:inline;fill:#FA823C;}
	.st13{display:inline;fill:#990000;}
	.st14{display:inline;fill:#FFFFFF;}
	
		.st15{display:inline;fill:none;stroke:#000000;stroke-width:5.2579;stroke-linecap:round;stroke-linejoin:round;stroke-miterlimit:10;}
	.st16{display:inline;fill:#EFAC86;}
	.st17{display:inline;}
	
		.st18{display:inline;fill:none;stroke:#000000;stroke-width:4.3201;stroke-linecap:round;stroke-linejoin:round;stroke-miterlimit:10;}
	
		.st19{display:inline;fill:none;stroke:#000000;stroke-width:4.7867;stroke-linecap:round;stroke-linejoin:round;stroke-miterlimit:10;}
</style>
<path class="st0" d="M-163.8,737.2"/>
<g>
	<path class="st1" d="M432.1,692.5c0,0-14,12.3-20.4,13.5c-17.3,3.6-51.8,7.3-63.6-13.8c-3.3-5.9-10.7-8.1-16.6-4.8l-42.3,23.8
		c-1.7,1.1-3.6,1.9-5.4,2.5c-1.9,0.8-3.7,1.2-5.6,1.6c-14.2,2.5-21.2,2.5-23,2.5h-21.8c-1.6,0-2.3-0.3-2.6-0.8
		c-1.1-1.9,3.6-6.4,3.6-11.8l-0.9-328.5v-24c0,0,3.3,0.6,8.7,2c3.1,0.9,6.8,2,11.4,3.6c31,10.7,89.2,39.7,106.7,108.3
		c1.9,7.5,9.8,11.5,16.8,8.6c11.8-5.3,35.8-3.1,47.8,20.2c1.1,2,1.9,4.2,2.6,6.4c11,30.5,9.6,61.3-12,101.1c0,0-18.8,18.2-15.9,31.9
		c1.1,4.2,4.8,7.2,9.2,7.9C421.3,644.9,460.1,658.9,432.1,692.5z"/>
	<path class="st2" d="M253.3,716.9h-22.7c-3,0-10-0.3-21.9-2.5c-1.1-0.2-2-0.5-3.1-0.8c-2.8-0.6-5.4-1.9-7.9-3.3l-42.3-23.8
		c-5.9-3.3-13.4-1.1-16.6,4.8c-11.8,21.2-46.4,17.4-63.6,14c-6.4-1.4-20.4-13.7-20.4-13.7c-28.2-33.6,10.6-47.6,23.5-49.8
		c4.2-0.8,8.1-3.6,9-7.9c3.1-13.5-15.9-31.9-15.9-31.9C49.8,562.3,48.4,531.5,59.4,501c0.8-2.2,1.6-4.4,2.6-6.4
		c11.8-23.3,35.9-25.4,47.6-20.2c7.2,3,15.1-1.1,17-8.6c17.6-68.6,75.5-97.4,106.6-108.1c3.3-1.2,6.2-2.2,8.7-3
		c7.2-2,11.4-2.8,11.4-2.8v24l-0.8,328.6C252.5,711.3,260.3,716.9,253.3,716.9z"/>
	<path class="st3" d="M319.9,347.4c0-66.1-14.5-124.2-36.3-156.2c-1.9-0.8-3.7-1.2-5.6-1.6c-14.2-2.5-21.2-2.5-23-2.5h-21.8
		c-1.6,0-2.3,0.3-2.6,0.8c-3,0-10,0.3-21.9,2.5c-1.1,0.2-2,0.5-3.1,0.8c-21.8,32.1-36.3,90.1-36.3,156.2
		c0,91.6,27.9,167.6,63.9,180.8c3.7,1.4,7.5,2,11.4,2c3,0,5.8-0.5,8.7-1.2C290.6,518.6,319.9,441.2,319.9,347.4z"/>
	<g>
		<path class="st4" d="M350.3,733.6h-21.6c-4.2,0-8.4-0.6-12.3-2.2c-36.1-13.5-47.9-39.1-51.5-50.7c-0.9-3.3-1.4-6.7-1.4-10.1V437
			c-0.9-31.9,8.4-54.3,21-69.9c12.3-15.6,27.9-24.4,39.2-29.1c15.1-6.4,11.5,11.2,20.7,24.9c34.2,50.6,19,186.6-1.1,256.6l-0.2,0.5
			c-6.4,22.4-11,36.6-11,36.6c-7.8,19.1,1.4,24.7,1.4,24.7C398.5,733.6,350.3,733.6,350.3,733.6z"/>
		<path class="st0" d="M343.3,619.6l-0.2,0.5l-5.6,19.2c-59.9,8.4-8.7-212.9-8.7-212.9c16.5-71.4-51.2-47.6-51.2-47.6
			c2.2-4.2,4.5-7.9,6.8-11.5c12.3-15.6,27.9-24.4,39.2-29.1c15.1-6.4,11.5,11.2,20.7,24.9C378.6,413.5,363.3,549.5,343.3,619.6z"/>
	</g>
	<g>
		<path class="st4" d="M137.2,733.6h21.6c4.2,0,8.4-0.6,12.3-2.2c36.1-13.5,47.9-39.1,51.5-50.7c0.9-3.3,1.4-6.7,1.4-10.1V437
			c0.9-31.9-8.4-54.3-21-69.9c-12.3-15.6-27.9-24.4-39.2-29.1c-15.1-6.4-11.5,11.2-20.7,24.9c-34.2,50.6-19,186.6,1.1,256.6l0.2,0.5
			c6.4,22.4,11,36.6,11,36.6c7.8,19.1-1.4,24.7-1.4,24.7C89,733.6,137.2,733.6,137.2,733.6z"/>
		<path class="st0" d="M144.2,619.6l0.2,0.5l5.6,19.2c59.9,8.4,8.7-212.9,8.7-212.9c-16.5-71.4,51.2-47.6,51.2-47.6
			c-2.2-4.2-4.5-7.9-6.8-11.5c-12.3-15.6-27.9-24.4-39.2-29.1c-15.1-6.4-11.5,11.2-20.7,24.9C108.9,413.5,124.2,549.5,144.2,619.6z"
			/>
	</g>
	<ellipse class="st5" cx="244.6" cy="363.3" rx="102.7" ry="38.9"/>
	<path class="st4" d="M383.8,174.5c0,0-16.2,84.6-37.8,126.7c0,0,11.4,93.7-98.6,80.9c-110,12.8-98.6-80.9-98.6-80.9
		c-21.6-42-37.8-126.7-37.8-126.7C66.1,56.9,196.3,52.7,196.3,52.7c0.2-0.2,0.3-0.2,0.5-0.2c2.5-1.1,12.9-4.7,28-7
		c0.6,0,1.2-0.2,1.9-0.2c2.5-0.3,5-0.6,7.6-0.9c1.7-0.2,3.3-0.2,5-0.3c1.2,0,2.3,0,3.7-0.2h8.7c1.4,0.2,2.5,0.2,3.7,0.2
		c1.7,0.2,3.3,0.2,5,0.3c2.6,0.3,5.1,0.6,7.6,0.9c0.6,0,1.2,0.2,1.9,0.2c15.1,2.3,25.5,5.9,28,7c0.2,0,0.3,0,0.5,0.2c0,0,0,0,0.2,0
		C303.7,52.9,427.7,59.4,383.8,174.5z"/>
	<path class="st0" d="M383.8,174.5c0,0-16.2,84.6-37.8,126.7c-14.6-37.2-49.9-63.5-61.8-79.4c-3.9-5.2-5.5-11.6-4.7-18l19.1-151.1
		C303.7,52.9,427.7,59.4,383.8,174.5z"/>
	<path class="st0" d="M110.9,174.5c0,0,16.2,84.6,37.8,126.7c9.8-33.5,50.6-64.4,62.3-80c3.6-4.8,5.2-10.8,4.4-16.7L196.2,52.7
		C191,52.9,67,59.4,110.9,174.5z"/>
	<path class="st6" d="M301.6,52.9c0,0,71.6-28.3,123.6,55c5.9,9.5,8.6,20.7,7.7,31.9c-2.6,33.7-7.9,112.4-3.9,148
		c1.7,15.4-10,29.7-25.4,29.1c-5.7-0.2-12.3-1.4-19.7-4.1c-4.9-1.8-10.3-4.3-16-7.6c-41.3-23.8-19.4-105.4-12-137.4
		c0.8-3.4,1.4-6.3,1.8-8.4C361.3,136.9,305.3,138.8,301.6,52.9z"/>
	<path class="st6" d="M193,52.9c0,0-71.6-28.3-123.6,55c-5.9,9.5-8.6,20.7-7.7,31.9c2.6,33.7,7.9,112.4,3.9,148
		c-1.7,15.4,10,29.7,25.4,29.1c5.7-0.2,12.3-1.4,19.7-4.1c4.9-1.8,10.3-4.3,16-7.6c41.3-23.8,19.4-105.4,12-137.4
		c-0.8-3.4-1.4-6.3-1.8-8.4C133.3,136.9,189.3,138.8,193,52.9z"/>
	<path class="st7" d="M285.8,262.4c0-20.6-76.9-20.6-76.9,0s17.2,37.3,38.5,37.3S285.8,283,285.8,262.4z"/>
	<g>
		<path class="st7" d="M318.6,184c0,15.2-7.3,27.4-16.3,27.4c-9,0-16.3-12.1-16.3-27.4c0-3.9,0.5-7.6,1.4-10.9
			c2.2-8.6,7-14.9,12.8-16c0.6-0.3,1.4-0.5,2.2-0.5C311.2,156.6,318.6,168.9,318.6,184z"/>
		<path class="st4" d="M300,172.3c0,3.8-3,6.8-6.8,6.8c-2.6,0-4.8-1.4-6-3.6c1.3-5.2,4.3-9.1,7.7-9.7C298,166.5,300,169.1,300,172.3
			z"/>
	</g>
	<g>
		<path class="st7" d="M209.4,184c0,15.2-7.3,27.4-16.3,27.4c-9,0-16.3-12.1-16.3-27.4c0-3.9,0.5-7.6,1.4-10.9
			c2.2-8.6,7-14.9,12.8-16c0.6-0.3,1.4-0.5,2.2-0.5C202,156.6,209.4,168.9,209.4,184z"/>
		<path class="st4" d="M190.8,172.3c0,3.8-3,6.8-6.8,6.8c-2.6,0-4.8-1.4-6-3.6c1.3-5.2,4.3-9.1,7.7-9.7
			C188.8,166.5,190.8,169.1,190.8,172.3z"/>
	</g>
	<path class="st8" d="M247.4,299.2v46.4c-8.8,5.4-21.1,4.8-30.7,1c-9.6-3.8-17.2-12.2-20-22.1"/>
	<path class="st8" d="M248.8,299.2v46.4c8.8,5.4,21.1,4.8,30.7,1c9.6-3.8,17.2-12.2,20-22.1"/>
</g>
<g class="st9">
	<path class="st10" d="M-181.5,705.9c-19.1-1.6-38.2,1.8-57.4,0.2c-7.1-0.6-14.4-1.2-21.5-0.3c-12.6,1.6-24.2,7.7-36.2,12
		c-12,4.3-25.7,6.7-37.1,1c-6.2-3-10.8-9.2-12.5-15.8c-2.1-8.1,4.4-15.9,12.7-15.7c4.5,0.1,9,0.3,13.5,0.4
		c-14.7-2-26.6-16.2-26.2-30.9c0.5-14.8,13.1-28.2,27.8-29.4c-0.2-9.8,0.5-19.6,2.1-29.3c8.3,6.6,20.4,8.4,29.6,3.4
		c13.1-7.2,16.7-25.5,11.7-39.6c-1.9-5.3-4.9-10.3-8.4-14.7c-2.8-3.5-6.2-7.7-10.2-10c1.2-2,2.6-4.1,4-6
		c19.3-28.1,47.6-49.7,79.8-61.1L-181.5,705.9z"/>
	<path class="st11" d="M-105.5,613.2c-1.6,1.5-3.3,2.7-5.2,3.6c-8.8,4.3-21.6,0.8-24.3-8.7c-1.2-4.5-0.1-9.5-1.4-14
		c-1-3.7-3.6-6.9-5.7-10.3c-5.2-8.9-6-20.2-2.3-29.9c2.6-6.9,7.8-13,14.3-16.7C-115.8,560-107.3,586.3-105.5,613.2z"/>
	<path class="st12" d="M-286.6,601.5c-9.3,5-21.4,3.2-29.6-3.4c3.4-21.6,11.2-42.4,22.7-60.9c4,2.3,7.4,6.4,10.2,10
		c3.5,4.4,6.4,9.4,8.4,14.7C-269.9,576-273.5,594.2-286.6,601.5z"/>
	<path class="st10" d="M-89.9,718.8c-11.4,5.7-25.1,3.3-37.1-1c-12-4.3-23.6-10.4-36.2-12c-7.1-0.9-14.4-0.2-21.5,0.3
		c-19.1,1.6-38.2-1.8-57.4-0.2l28.3-235.8c32.1,11.4,60.4,33,79.8,61.1c1.4,1.9,2.7,4,4,6c-6.4,3.7-11.7,9.8-14.3,16.7
		c-3.7,9.6-2.9,20.9,2.3,29.9c2,3.4,4.6,6.6,5.7,10.3c1.2,4.5,0.1,9.5,1.4,14c2.7,9.5,15.5,13,24.3,8.7c1.9-0.9,3.6-2.1,5.2-3.6
		c0.3,4.8,0.5,9.4,0.3,14.1c14.7,1.2,27.4,14.6,27.8,29.4c0.3,14.7-11.5,28.8-26.2,30.9c4.8-0.1,9.6-0.3,14.3-0.4
		c7.4-0.2,13.4,6.3,12.3,13.6C-78.1,708.2-83.1,715.4-89.9,718.8z"/>
	<ellipse class="st13" cx="-211" cy="535.8" rx="81" ry="29.2"/>
	<path class="st14" d="M-72,431.3c0,65.3-63.9,118.2-142.8,118.2c-64.7,0-119.5-35.9-136.8-84.8c6.7,1.9,13.7,2.9,20.6,2.9
		c30.8,0,60.2-17.5,77.8-42.6c17.6-25.2,24.1-57.1,21.5-87.8c-1-12-3.5-24-7.7-35.4c-1.4-3.6-2.9-7.2-4.8-10.7
		c9.5-2.4,19.2-3.6,29.3-3.6c10.9,0,21.4,1.5,31.6,4.3C-133.7,305.1-94,348.1-78.7,393C-74.4,405.8-72,418.8-72,431.3z"/>
	<path class="st14" d="M-133.8,721.5c-0.3,0.2-0.7,0.3-1,0.6c-26.7,15.5-60.1-5.1-60.1-36v-83.3c0-9.3,3.4-18.6,10.5-24.5
		c13.5-11.3,24.5,0.9,30.5,10.6c3.2,5.2,4.8,11.3,4.8,17.4v62.1c0,1.2,0.1,2.4,0.2,3.6c0.9,6.6,4.4,12.6,10,16.4
		C-108.2,709.5-133.8,721.5-133.8,721.5z"/>
	<path class="st14" d="M-221.1,602.8l0,83.3c0,30.8-33.4,51.5-60.1,36c-0.3-0.2-0.7-0.4-1-0.6c0,0-25.5-11.9,5.1-33
		c6.5-4.5,10.2-12.1,10.2-20l0-62.2c0-6.1,1.6-12.2,4.8-17.4c6-9.7,17.1-22,30.5-10.7C-224.5,584.3-221.1,593.5-221.1,602.8z"/>
	<path class="st15" d="M-205,452v31.4c-5.9,3.6-14.3,3.2-20.8,0.7c-6.5-2.5-11.6-8.2-13.5-14.9"/>
	<path class="st15" d="M-204,452v31.4c5.9,3.6,14.3,3.2,20.8,0.7c6.5-2.5,11.6-8.2,13.5-14.9"/>
	<path class="st14" d="M-169.7,303c0,0,45.6-43.8,73.1-30.3c0,0,15.6,76.3-21.6,90.9L-169.7,303z"/>
	<path class="st16" d="M-152.8,307.2c0,0,31.8-30.6,51.1-21.2c0,0,10.9,53.4-15.1,63.6L-152.8,307.2z"/>
	<path class="st12" d="M-78.7,393c-4.3,1.1-8.6,1.7-12.9,1.9c-29.6,1.5-59.6-13-76.8-37.2c-5.7-7.9-9.8-16.9-12.6-26.2
		c-3.8-13.3-4.2-26.5-2.3-39.7C-133.7,305.1-94,348.1-78.7,393z"/>
	<path class="st14" d="M-270.5,303c0,0-45.6-43.8-73.1-30.3c0,0-15.6,76.3,21.6,90.9L-270.5,303z"/>
	<path class="st16" d="M-282,307.2c0,0-31.8-30.6-51.1-21.2c0,0-10.9,53.4,15.1,63.6L-282,307.2z"/>
	<path class="st11" d="M-253.1,425c-17.6,25.1-47.1,42.6-77.8,42.6c-6.9,0-13.9-1-20.6-2.9c-3.8-10.5-5.9-21.7-5.9-33.4
		c0-56.9,48.6-124.1,113.4-140.3c1.8,3.5,3.4,7.1,4.8,10.7c4.2,11.4,6.7,23.4,7.7,35.4C-229.1,367.9-235.5,399.8-253.1,425z"/>
	<path class="st17" d="M-185.5,440.7c0,11-8.5,19.9-19,19.9c-10.5,0-19-8.9-19-19.9S-185.5,429.7-185.5,440.7z"/>
	<circle class="st17" cx="-152.8" cy="401.5" r="17"/>
	<circle class="st14" cx="-159.3" cy="395" r="6.5"/>
	<circle class="st17" cx="-262.3" cy="401.5" r="17"/>
	<circle class="st14" cx="-268.8" cy="395" r="6.5"/>
	<path class="st12" d="M-148.8,672.1c-2.9,1.8-6.3,2.8-9.8,2.8c-12.7,0-22.9-12.6-22.9-28.1c0-15.6,10.2-28.2,22.9-28.2
		c3.4,0,6.7,0.9,9.6,2.7v47.1C-149.1,669.7-149,670.8-148.8,672.1z"/>
	<path class="st18" d="M-147.7,454.2c25.8-9.5,53.4-14.1,80.9-13.4"/>
	<path class="st19" d="M-58,475.8c-28.6-10.6-59.2-15.6-89.7-14.9"/>
	<path class="st18" d="M-256.6,454.2c-25.8-9.5-53.4-14.1-80.9-13.4"/>
	<path class="st19" d="M-346.3,475.8c28.6-10.6,59.2-15.6,89.7-14.9"/>
</g>
</svg>
