<?xml version="1.0" encoding="utf-8"?>
<!-- Generator: Adobe Illustrator 25.1.0, SVG Export Plug-In . SVG Version: 6.00 Build 0)  -->
<svg version="1.1" id="Layer_1" xmlns="http://www.w3.org/2000/svg" xmlns:xlink="http://www.w3.org/1999/xlink" x="0px" y="0px"
	 viewBox="0 0 647 588" style="enable-background:new 0 0 647 588;" xml:space="preserve">
<style type="text/css">
	.st0{fill:#FFCCCC;}
	.st1{fill:#FA823C;}
	.st2{fill:#D15B5B;}
	.st3{fill:#FA5C00;}
	.st4{fill:#CCC921;}
	.st5{fill:#C67777;}
	.st6{fill:#FA9E69;}
	.st7{fill:#DEDB45;}
	.st8{fill:#68EAE6;stroke:#D15B5B;stroke-width:4.6711;stroke-miterlimit:10;}
	.st9{display:none;}
	.st10{display:inline;fill:#DEDB45;stroke:#ADFBFF;stroke-width:0.968;stroke-miterlimit:10;}
	.st11{display:inline;fill:#CCC921;}
	.st12{display:inline;fill:none;stroke:#D15B5B;stroke-width:15.4886;stroke-miterlimit:10;}
	.st13{display:inline;}
	.st14{fill:#333333;}
	.st15{display:inline;fill:none;stroke:#68EAE6;stroke-width:14.5206;stroke-miterlimit:10;}
	.st16{fill:#68EAE6;stroke:#68EAE6;stroke-width:0.968;stroke-miterlimit:10;}
	
		.st17{display:inline;fill:none;stroke:#333333;stroke-width:10.6484;stroke-linecap:round;stroke-linejoin:round;stroke-miterlimit:10;}
	.st18{display:inline;fill:#E8E78E;}
	.st19{display:inline;fill:#DEDB45;}
	.st20{display:inline;fill:none;}
	.st21{fill:#F9593E;}
	.st22{display:none;fill:#FF9933;}
	.st23{display:none;fill:#E64D00;}
	.st24{display:none;fill:#FFFFFF;}
	.st25{fill:#FFC306;}
	.st26{fill:#0081D1;}
	.st27{fill:#E89351;}
	.st28{fill:#FF2B00;}
	.st29{fill:#062433;}
	.st30{fill:#68EAE6;}
	.st31{fill:#50C6CC;}
	.st32{fill:#E5FEFF;}
	.st33{fill:none;stroke:#F9593E;stroke-width:12.5807;stroke-linecap:round;stroke-linejoin:round;stroke-miterlimit:10;}
	
		.st34{display:inline;fill:none;stroke:#F9593E;stroke-width:5.0323;stroke-linecap:round;stroke-linejoin:round;stroke-miterlimit:10;stroke-dasharray:6.7097,10.0646,6.7097,10.0646,6.7097,10.0646;}
	.st35{display:inline;fill:#DEDB45;stroke:#68EAE6;stroke-width:12.5807;stroke-linejoin:round;stroke-miterlimit:10;}
</style>
<g>
	<polygon class="st0" points="580.4,300.3 580.4,303.3 576.5,300.3 	"/>
	<path class="st1" d="M527.1,320.8h-13.1c-6.2,0-11.2-5-11.2-11.2V186.3c0-6.2,5-11.2,11.2-11.2h13.1c6.2,0,11.2,5,11.2,11.2v123.3
		C538.3,315.8,533.3,320.8,527.1,320.8z"/>
	<path class="st1" d="M580.4,303.3v229.8c0,10.2-8.2,18.4-18.4,18.4H194.3c-10.2,0-18.4-8.2-18.4-18.4V300.3l51.2-41.1l146.3-117.4
		l203,158.5L580.4,303.3z"/>
	<polygon class="st0" points="580.4,300.3 576.5,300.3 373.4,141.7 374.4,141 527.2,259.2 	"/>
	<path class="st2" d="M294.7,547.8h-44.3c-11.2,0-20.4-9.1-20.4-20.4V419.7c0-11.2,9.1-20.4,20.4-20.4h44.3
		c11.2,0,20.4,9.1,20.4,20.4v107.8C315.1,538.7,305.9,547.8,294.7,547.8z"/>
	<path class="st3" d="M604.6,308l-2.9,3.7c-3.8,4.9-10.9,5.7-15.7,1.9l-3.7-2.9l-3.9-3l-203-158.5l-0.2-0.1L170.4,308.9
		c-4.9,3.8-11.9,2.9-15.7-1.9l-2.9-3.7c-3.8-4.9-2.9-11.9,1.9-15.7L366,121.8l0,0l3.4-2.6c0.4-0.3,0.7-0.5,1.1-0.8c0,0,0,0,0,0
		c3.6-1.5,7.9-1,11.2,1.5l6.3,5l214.5,167.5C607.5,296.1,608.3,303.2,604.6,308z"/>
	<path class="st4" d="M106.7,419.9L106.7,419.9c-41.1,0-74.7-33.6-74.7-74.7V216.2c0-41.1,33.6-74.7,74.7-74.7h0
		c41.1,0,74.7,33.6,74.7,74.7v128.9C181.5,386.2,147.8,419.9,106.7,419.9z"/>
	<path class="st5" d="M115.1,554.4h-4.7c-6.2,0-11.2-5-11.2-11.2V299.3c0-6.2,5-11.2,11.2-11.2h4.7c6.2,0,11.2,5,11.2,11.2v243.8
		C126.4,549.3,121.3,554.4,115.1,554.4z"/>
	<path class="st5" d="M118.4,384.3l-1.8,1.6c-4.5,4.2-11.7,3.9-15.8-0.7l-32.2-35.2c-4.2-4.5-3.9-11.7,0.7-15.8l1.8-1.6
		c4.5-4.2,11.7-3.9,15.8,0.7l32.2,35.2C123.2,373,122.9,380.1,118.4,384.3z"/>
	<path class="st6" d="M580.4,303.3v229.8c0,10.2-8.2,18.4-18.4,18.4H373V142.1l0.5-0.4l203,158.5L580.4,303.3z"/>
	<path class="st3" d="M604.6,308l-2.9,3.7c-3.8,4.9-10.9,5.7-15.7,1.9l-3.7-2.9l-3.9-3l-203-158.5l-0.2-0.1l-2.1,1.7v-33.1
		c3-0.5,6.2,0.2,8.8,2.2l6.3,5l214.5,167.5C607.5,296.1,608.3,303.2,604.6,308z"/>
	<path class="st7" d="M602.8,574H43.2C37,574,32,569,32,562.8V546c0-6.2,5-11.2,11.2-11.2h559.6c6.2,0,11.2,5,11.2,11.2v16.8
		C614,569,609,574,602.8,574z"/>
	<path class="st4" d="M614,546v16.8c0,6.2-5,11.2-11.2,11.2H323.5v-39.2h279.3C609,534.8,614,539.8,614,546z"/>
	<g>
		<g>
			<path class="st1" d="M548.8,58c18.5,0.1,33.5,15.1,33.6,33.6c0,34-61.8,67.6-61.8,67.6s-61.8-34.1-61.8-67.6
				c0-18.6,15.1-33.6,33.6-33.6l0,0c11.4-0.1,22,5.6,28.2,15.2C526.8,63.7,537.4,58,548.8,58z"/>
		</g>
		<g>
			<path class="st3" d="M582.4,91.6c0,34-61.8,67.6-61.8,67.6v-86c6.2-9.5,16.8-15.2,28.2-15.2C567.3,58.1,582.3,73.1,582.4,91.6z"
				/>
		</g>
	</g>
	<path class="st8" d="M490.9,385.3h-44.3c-11.2,0-20.4-9.1-20.4-20.4v-44.3c0-11.2,9.1-20.4,20.4-20.4h44.3
		c11.2,0,20.4,9.1,20.4,20.4v44.3C511.3,376.2,502.1,385.3,490.9,385.3z"/>
</g>
<g class="st9">
	<path class="st10" d="M512,573.3H148.4c-23.9,0-43.3-19.4-43.3-43.3V276.8c0-23.9,19.4-43.3,43.3-43.3H512
		c23.9,0,43.3,19.4,43.3,43.3V530C555.3,553.9,535.9,573.3,512,573.3z"/>
	<path class="st11" d="M555.3,276.8V530c0,23.9-19.4,43.3-43.3,43.3H321.5V233.5H512C535.9,233.5,555.3,252.9,555.3,276.8z"/>
	<path class="st12" d="M261,320.6h125.8c6.4,0,11.6-5.2,11.6-11.6v-63.9c0-6.4-5.2-11.6-11.6-11.6H261c-6.4,0-11.6,5.2-11.6,11.6
		V309C249.4,315.4,254.6,320.6,261,320.6z"/>
	<g class="st13">
		<path class="st3" d="M357.6,54.1c-11.3-30.4,13-48.9,43.7-33.4l21.7,11l21.7,11c30.7,15.5,44.8,53.5,25.4,68.4l-13.7,10.5
			L442.7,132c-19.4,14.8-57.8-4.6-69.1-35l-8-21.5L357.6,54.1z"/>
		<path class="st3" d="M282,54.4c11.7-30.8-12.6-49.3-43.7-33.4l-21.9,11.3l-21.9,11.3c-31.1,15.9-45.7,54.4-26.2,69.3l13.7,10.5
			l13.7,10.5c19.4,14.8,58.3-5.1,70-35.9l8.2-21.7L282,54.4z"/>
		<path class="st6" d="M249.9,45.3c33.1-52.4,115.9-52.4,149,0l23.4,37l23.4,37c33.1,52.4-8.3,117.9-74.5,117.9h-46.7h-46.7
			c-66.2,0-107.6-65.5-74.5-117.9l23.4-37L249.9,45.3z"/>
		<path class="st1" d="M371.2,237.2h-43.3V6.1c27.8,1,55.2,14.1,71.1,39.2l23.4,37l23.4,37C478.7,171.7,437.4,237.2,371.2,237.2z"/>
		<g>
			<g>
				<path class="st14" d="M338.3,144.1c7.1,0.1,12.9,4.6,12.9,10.2c-0.1,7.5-13.1,13.3-19.9,15.9c-2.6,1-5.5,0.9-8-0.1
					c-6.8-2.6-19.7-8.7-19.7-16.1c0-5.6,5.9-10,13-10l0,0c2.9,0,5.7,0.8,7.9,2.1c1.8,1.1,4,1.1,5.8,0
					C332.6,144.8,335.4,144.1,338.3,144.1z"/>
			</g>
		</g>
		<ellipse class="st14" cx="361.7" cy="99.6" rx="15.5" ry="19"/>
		<ellipse class="st14" cx="292" cy="99.6" rx="15.5" ry="19"/>
		<rect x="323" y="165.9" class="st14" width="9.7" height="49.2"/>
		<path class="st3" d="M422.7,247.8c0,10.7-9.5,19.5-21.3,19.5c-2,0-4-0.3-5.8-0.7c-3.7,5.7-10.5,9.6-18.4,9.6
			c-7.1,0-13.4-3.2-17.3-8.1c-2.2,0.7-4.5,1-6.9,1c-11.8,0-21.3-8.7-21.3-19.5c0-7.8,5.1-14.6,12.4-17.7
			c3.3-11.1,16.9-19.5,33.1-19.5c15.2,0,28.1,7.3,32.4,17.4v0C417.2,232.7,422.7,239.7,422.7,247.8z"/>
		<path class="st3" d="M321.6,247.8c0,10.7-9.5,19.5-21.3,19.5c-2,0-4-0.3-5.8-0.7c-3.7,5.7-10.5,9.6-18.4,9.6
			c-7.1,0-13.4-3.2-17.3-8.1c-2.2,0.7-4.5,1-6.9,1c-11.8,0-21.3-8.7-21.3-19.5c0-7.8,5.1-14.6,12.4-17.7
			c3.3-11.1,16.9-19.5,33.1-19.5c15.2,0,28.1,7.3,32.4,17.4v0C316.1,232.7,321.6,239.7,321.6,247.8z"/>
	</g>
	<path class="st15" d="M105.2,321c46.6-2,83.7-40.4,83.7-87.5"/>
	<g class="st13">
		<g>
			<path class="st16" d="M547.5,328.4c-52.3,0-94.9-42.6-94.9-94.9h14.5c0,44.3,36,80.3,80.3,80.3c2.4,0,4.8-0.1,7.1-0.3l1.3,14.5
				C553.2,328.2,550.4,328.4,547.5,328.4z"/>
		</g>
	</g>
	<path class="st15" d="M188.8,573.3c0.1-1.6,0.1-3.2,0.1-4.8c0-47.1-37.2-85.5-83.7-87.5"/>
	<path class="st15" d="M460.1,573.3c-0.1-1.6-0.1-3.2-0.1-4.8c0-48.4,39.2-87.6,87.6-87.6c2.6,0,5.2,0.1,7.7,0.3"/>
	
		<image style="display:inline;overflow:visible;" width="4" height="349" xlink:href="C3D34D5D.png"  transform="matrix(1 0 0 1 430 229)">
	</image>
	
		<image style="display:inline;overflow:visible;" width="3" height="349" xlink:href="C3D34D5F.png"  transform="matrix(1 0 0 1 214 233)">
	</image>
	<path class="st17" d="M273.1,169.1c0,23.5,22.3,42.6,49.9,42.6s49.9-19.1,49.9-42.6"/>
</g>
<g class="st9">
	<path class="st18" d="M207.3,230.9v350.6L92.4,536.2c-6.9,0-12.6-5.6-12.6-12.6l-3.4-325.4c0-6.9,5.6-12.6,12.6-12.6L207.3,230.9z"
		/>
	<path class="st11" d="M579.7,196.5l-1.7,161.1L576.4,522c0,6.9-5.6,12.6-4.5,9.4l-123,48.5V229.2l118.3-45.3
		C574.1,183.9,579.7,189.6,579.7,196.5z"/>
	<path class="st19" d="M448.9,229.2v350.6L334,534.5c-2.1,0-4.1-0.5-5.9-1.5V184.2c0.8-0.2,1.7-0.3,2.5-0.3L448.9,229.2z"/>
	<path class="st11" d="M328.1,184.2v348.9c-1.8,0.9-3.7,1.5-5.9,1.5l-114.9,45.3V229.2l118.3-45.3
		C326.5,183.9,327.3,184,328.1,184.2C328.1,184.2,328.1,184.2,328.1,184.2z"/>
	<line class="st20" x1="328.1" y1="538.7" x2="328.1" y2="533.1"/>
	<g class="st13">
		<g>
			<g>
				<path class="st6" d="M518.2,97c0,40.9-83.9,135.2-83.9,135.2S350.3,137.8,350.3,97c0-40.9,37.6-74,83.9-74
					C480.6,23,518.2,56.1,518.2,97z"/>
				<path class="st21" d="M518.2,97c0-40.9-37.6-74-83.9-74v209.2C434.3,232.2,518.2,137.8,518.2,97z"/>
				<path class="st22" d="M506.7,97.6c0,35.3-32.4,63.8-72.4,63.8c-40,0-72.4-28.6-72.4-63.8c0-35.3,32.4-63.8,72.4-63.8
					C474.3,33.8,506.7,62.3,506.7,97.6z"/>
				<path class="st23" d="M504.2,97.6c0,34-31.3,61.6-69.9,61.6c-38.6,0-70-27.6-70-61.6c0-34,31.3-61.6,70-61.6
					C472.9,35.9,504.2,63.5,504.2,97.6z"/>
				<path class="st24" d="M497.9,97.6c0,31-28.5,56-63.6,56s-63.6-25.1-63.6-56s28.5-56,63.6-56S497.9,66.6,497.9,97.6z"/>
			</g>
			<g class="st9">
				<g class="st13">
					<path class="st25" d="M382.1,105c5.2-8,31.6-8.5,55.6,0c24.1,8.5,40.9,13.7,40.4,23.5c-0.5,9.8-46.3,6.4-70.1,4.3
						C384.3,130.8,374.4,117,382.1,105z"/>
					<path class="st26" d="M394.8,119.4c0,0,81.2-0.9,85.4-0.9c1.5,0-14.3-19.2-16.4-19.3c-2.1-0.1-82.9,0.3-82.9,0.3
						C380,100.6,394.8,119.4,394.8,119.4z"/>
					<path class="st27" d="M421.6,81.2c4.3-1.9,8.8-6.8,9.3-8.2c0.5-1.4-5.7-4.1-7.3-4.2c-1.6-0.1-6.2,1.2-8.8,1.2
						c-2.2,0-0.4-2.6,3.3-4.1c5-2,18,3.6,18.3,6.8c0.3,3.2-10.6,13-13.7,14.1C419.7,87.9,417.9,82.8,421.6,81.2z"/>
					<path class="st27" d="M406,85.5c-0.3,1.4,9.5,12,11.9,15.4c2.7,3.7-1,11.6,1.6,11.6c1.7,0,8.8,2.5,11.4,1.8
						c2.6-0.7,8.8-11.5,7.5-13.1c-1.6-2.1-4.6-2.4-7.1-2.6c-1.5-0.1-4.2-0.3-4.8-0.8c-0.9-0.8,0-4.4-1.5-8.7
						c-1.1-3.5-3.2-7.9-3.5-7.9C420.8,81.2,406.5,83.6,406,85.5z"/>
					<path class="st27" d="M429.7,97.5c0,0,19.4-9.5,23.4-9.5c2,0,15.9,13.6,18.9,15c3,1.4,8.5-0.1,9.5,0.4
						c1.7,0.9-8.4,3.9-11.6,4.5c-3.1,0.6-2.4-3.5-4.2-4.2c-5.8-2.4-7.8-2.2-11.1-5.7c-1.2-1.3-2.5-2.9-2.5-2.9s-15.9,12.6-17.1,12.9
						C434,108.2,429.7,97.5,429.7,97.5z"/>
					<path class="st27" d="M433.2,102.7c5.2,0.4,18.5,0.8,19.3,1.6c0.9,0.8,21.1,7.8,22.6,7.9c6.6,0.7,10.9-1.1,12.4,0.1
						c1.4,1.2-7.3,2.2-9.2,4.3c-1.6,1.8-3.9-0.6-5.9-0.8c-2-0.3-11.3-0.7-14.5-1.4c-4.7-1-6.4-3.2-7.8-3.8
						c-1.4-0.6-18.9,4.5-23.4,4.3c-4.5-0.3-11.3,0.5-7.8-8.6C422.4,97.1,429.4,102.4,433.2,102.7z"/>
					<path class="st27" d="M406,84.4c0,0-1.1,2.5-1.3,6c-0.2,5.3,0.7,12.4,0.5,13.4c-0.3,1.7-4.2,10.1-6,10.6
						c-1.8,0.6-9.2,0.6-9.3,2.7c-0.2,2.3,8.9,1.1,10.9,0.7c2.1-0.3,9.8-11.3,9.8-14.7c0-7.8,1.1-13.8,1.1-13.8S413.8,82.3,406,84.4z
						"/>
					<path class="st27" d="M415.4,77.8c0.5,2.1,5,7.8,5,7.8s-7.1,0-7.8,0c-0.8,0-3.1-7.5-1.8-7.9C412.1,77.2,414.9,75.9,415.4,77.8z
						"/>
					<path class="st27" d="M402.5,70.7c-1,2.6,4.7,9.7,11.6,9.4c6.9-0.3,3.7-10.6,1.9-11.3C414.2,68,405,64.2,402.5,70.7z"/>
					<path class="st25" d="M407.1,69.9c0,0,3,4.9,3.1,7.3c0,1.3-8,3.6-9.3,2.8c0,0,2.4-2.1,0.7-7.2
						C400.4,69.4,407.1,69.9,407.1,69.9z"/>
					<path class="st28" d="M394.8,74.6c-0.9,1.9,31-5.4,30.1-6.3c-1-0.9-10,0.9-10.2-1.8c-0.2-3.3-4.2-4.1-7.8-3.5
						c-3.6,0.6-6.2,3.1-5.2,6.7C401.9,70.8,395.4,73.5,394.8,74.6z"/>
					<path class="st29" d="M406,84.4c2.8,0.7,4.3,2.8,4.7,7.3c0.2,2.7,0.3,4.6,0.3,4.6c1.8,2,6.7,3.4,6,8.3
						c-0.7,4.7,0.7,9.1,3.7,9.9c1.6,0.4-5.4-2.1,1.7-9.2c3.9-3.9,10.9-2.6,10.9-2.6s-4-3.3-2.3-5.9c0.6-1-6.4-1-3.3-4.3
						c2.9-3.1,0.9-4.4-1.5-7.4c-1.5-2-4.6-3.9-4.6-3.9c-0.5,0.1-1.9,0.3-1.9,0.3c2.6,1.9,6.3,5.6,1,6.9c-8.7,2.3-10-4.4-10.9-4.8
						C409,83.3,406,84.4,406,84.4z"/>
				</g>
			</g>
		</g>
		<g>
			<g>
				<path class="st30" d="M409.9,152.6c-15.9-0.3-28.6-11.8-28.4-25.8c0.3-18.9,29.4-33.4,44.6-39.6c5.7-2.4,12.2-2.2,17.8,0.3
					c15,6.8,43.7,22.2,43.5,40.9c-0.2,14-13.3,25.2-29.2,25l0,0c-6.5-0.1-12.7-2.1-17.6-5.5c-3.9-2.7-8.9-2.8-12.9-0.2
					C422.6,150.8,416.4,152.7,409.9,152.6z"/>
			</g>
		</g>
		
			<ellipse transform="matrix(0.9317 -0.3632 0.3632 0.9317 3.8978 155.4684)" class="st31" cx="415.3" cy="67.4" rx="14.4" ry="16.4"/>
		
			<ellipse transform="matrix(0.7926 -0.6098 0.6098 0.7926 26.5282 254.5504)" class="st32" cx="387.4" cy="88.3" rx="10.9" ry="13"/>
		<ellipse transform="matrix(0.633 -0.7741 0.7741 0.633 107.406 405.9443)" class="st32" cx="481.9" cy="89.7" rx="13" ry="10.9"/>
		
			<ellipse transform="matrix(0.3907 -0.9205 0.9205 0.3907 214.3889 459.8178)" class="st30" cx="454.6" cy="68" rx="16.4" ry="14.4"/>
		<g>
			<g>
				<path class="st31" d="M487.4,128.3c-0.2,14-13.3,25.2-29.2,25l-0.2,0c-6.4-0.1-12.5-2.1-17.4-5.5c-1.9-1.4-4.2-2.1-6.4-2.1
					l0.9-60.2c3,0.1,6.1,0.7,8.9,2C459,94.2,487.7,109.6,487.4,128.3z"/>
			</g>
		</g>
	</g>
	<g class="st13">
		<line class="st33" x1="158.7" y1="412.9" x2="111.7" y2="473.3"/>
		<line class="st33" x1="111.7" y1="412.9" x2="158.7" y2="473.3"/>
	</g>
	<path class="st34" d="M152,444.5c27.2,17,58,28,89.8,32.1c25.9,3.4,55.4,0.8,72.8-18.7c30.1-33.8,4-92.6,29.9-129.7
		c13.4-19.2,37.4-27.4,57.3-39.7c19.9-12.4,38.1-36,29-57.7"/>
	<path class="st35" d="M342.4,319"/>
</g>
</svg>
