<?xml version="1.0" encoding="utf-8"?>
<!-- Generator: Adobe Illustrator 25.1.0, SVG Export Plug-In . SVG Version: 6.00 Build 0)  -->
<svg version="1.1" id="Layer_1" xmlns="http://www.w3.org/2000/svg" xmlns:xlink="http://www.w3.org/1999/xlink" x="0px" y="0px"
	 viewBox="0 0 289 203" style="enable-background:new 0 0 289 203;" xml:space="preserve">
<style type="text/css">
	.st0{fill:#FFFFFF;}
	.st1{fill:#EFEFEF;}
	.st2{fill:#F9593E;}
</style>
<g>
	<path class="st0" d="M194,46.8v64.5c0,6-2.3,11.5-6.2,15.6c-4.2,4.5-10.2,7.3-16.8,7.3l-63.9,0c-12.9,0-23.5-10.6-23.5-23.5l0-63.9
		c0-6.6,2.8-12.6,7.3-16.8c4.1-3.8,9.6-6.2,15.6-6.2l64.5,0C183.7,23.8,194,34.2,194,46.8z"/>
</g>
<path class="st1" d="M91,30l96.9,96.9c-4.2,4.5-10.2,7.3-16.8,7.3l-63.9,0c-12.9,0-23.5-10.6-23.5-23.5l0-63.9
	C83.6,40.2,86.5,34.2,91,30z"/>
<g>
	<g>
		<g>
			<path class="st2" d="M147.7,112.4c-8.2,7.7-20.3,8.1-27.1,0.9c-9.2-9.7-1.5-31.4,3.1-42c1.7-4,5.1-7.1,9.2-8.6
				c10.9-3.9,33.1-10.2,42.1-0.6c6.8,7.2,5.7,19.3-2.5,27l0,0c-3.3,3.2-7.4,5.2-11.7,5.9c-3.3,0.5-5.9,3-6.6,6.2
				C153.3,105.3,151.1,109.3,147.7,112.4z"/>
		</g>
	</g>
	
		<ellipse transform="matrix(0.4155 -0.9096 0.9096 0.4155 2.8719 137.7394)" class="st2" cx="108.6" cy="66.6" rx="10.2" ry="11.6"/>
	<ellipse transform="matrix(0.1439 -0.9896 0.9896 0.1439 -0.3179 181.5153)" class="st2" cx="104.8" cy="90.9" rx="7.7" ry="9.2"/>
	
		<ellipse transform="matrix(0.9964 -8.501465e-02 8.501465e-02 0.9964 -3.2899 13.1938)" class="st2" cx="153.3" cy="45.2" rx="7.7" ry="9.2"/>
	
		<ellipse transform="matrix(0.9326 -0.3608 0.3608 0.9326 -8.5202 49.6654)" class="st2" cx="128.8" cy="47.7" rx="10.2" ry="11.6"/>
</g>
<g>
	<path class="st0" d="M48.2,156.4l-6.8,26h-7.7l-4.1-17.1l-4.3,17.1h-7.7l-6.6-26h6.8l3.7,18.9l4.6-18.9h7l4.4,18.9l3.8-18.9H48.2z"
		/>
	<path class="st0" d="M55.3,181.3c-1.6-0.9-2.9-2.1-3.8-3.7c-0.9-1.6-1.4-3.5-1.4-5.6c0-2.1,0.5-4,1.4-5.6c0.9-1.6,2.2-2.9,3.8-3.7
		s3.5-1.3,5.5-1.3c2,0,3.8,0.4,5.5,1.3c1.6,0.9,2.9,2.1,3.8,3.7s1.4,3.5,1.4,5.6s-0.5,4-1.4,5.6s-2.2,2.9-3.9,3.7
		c-1.6,0.9-3.5,1.3-5.5,1.3C58.7,182.6,56.9,182.2,55.3,181.3z M63.8,175.8c0.9-0.9,1.3-2.2,1.3-3.8s-0.4-2.9-1.2-3.8
		c-0.8-0.9-1.8-1.3-3.1-1.3c-1.2,0-2.3,0.4-3.1,1.3c-0.8,0.9-1.2,2.2-1.2,3.8c0,1.7,0.4,2.9,1.2,3.8c0.8,0.9,1.8,1.3,3,1.3
		C62,177.2,63,176.7,63.8,175.8z"/>
	<path class="st0" d="M78.9,181.3c-1.6-0.9-2.9-2.1-3.8-3.7c-0.9-1.6-1.4-3.5-1.4-5.6c0-2.1,0.5-4,1.4-5.6c0.9-1.6,2.2-2.9,3.8-3.7
		s3.5-1.3,5.5-1.3c2,0,3.8,0.4,5.5,1.3c1.6,0.9,2.9,2.1,3.8,3.7s1.4,3.5,1.4,5.6s-0.5,4-1.4,5.6s-2.2,2.9-3.9,3.7
		c-1.6,0.9-3.5,1.3-5.5,1.3C82.3,182.6,80.5,182.2,78.9,181.3z M87.4,175.8c0.9-0.9,1.3-2.2,1.3-3.8s-0.4-2.9-1.2-3.8
		c-0.8-0.9-1.8-1.3-3.1-1.3c-1.2,0-2.3,0.4-3.1,1.3c-0.8,0.9-1.2,2.2-1.2,3.8c0,1.7,0.4,2.9,1.2,3.8c0.8,0.9,1.8,1.3,3,1.3
		C85.5,177.2,86.6,176.7,87.4,175.8z"/>
	<path class="st0" d="M108.9,167h-3.4v15.4h-6.3V167h-2.3v-5.3h2.3v-0.6c0-2.5,0.7-4.5,2.2-5.8c1.5-1.3,3.6-2,6.4-2c0.5,0,0.8,0,1,0
		v5.4c-1.2-0.1-2.1,0.1-2.6,0.5c-0.5,0.4-0.7,1.2-0.7,2.3v0.2h3.4V167z"/>
	<path class="st0" d="M139.5,182.3l-2.4-2.3c-2.4,1.8-5.3,2.7-8.6,2.7c-2,0-3.7-0.3-5.2-1s-2.6-1.6-3.4-2.8
		c-0.8-1.2-1.2-2.6-1.2-4.2c0-1.6,0.4-3.1,1.3-4.4c0.9-1.3,2.2-2.4,3.9-3.2c-0.6-0.8-1.1-1.5-1.4-2.3c-0.3-0.7-0.4-1.5-0.4-2.4
		c0-1.2,0.3-2.4,1-3.4c0.6-1,1.6-1.8,2.8-2.4c1.2-0.6,2.7-0.9,4.3-0.9c1.7,0,3.1,0.3,4.3,0.9c1.2,0.6,2.1,1.4,2.7,2.5
		c0.6,1,0.9,2.2,0.8,3.4h-6c0-0.7-0.1-1.2-0.5-1.5c-0.4-0.4-0.8-0.5-1.4-0.5c-0.6,0-1.1,0.2-1.5,0.5c-0.4,0.3-0.6,0.8-0.6,1.3
		c0,0.5,0.2,1.1,0.5,1.6s0.9,1.2,1.6,2l6.3,6.2c0-0.1,0.1-0.3,0.2-0.4c0.1-0.2,0.2-0.4,0.3-0.6l1.4-2.3h6.3l-1.8,3.2
		c-0.7,1.5-1.4,2.8-2.3,4.1l6.3,6.1H139.5z M133.2,176.2l-5.8-5.6c-1.8,0.9-2.7,2.1-2.7,3.7c0,0.9,0.4,1.7,1.1,2.3s1.7,0.9,2.9,0.9
		C130.5,177.6,131.9,177.2,133.2,176.2z"/>
	<path class="st0" d="M186.4,156.4v26h-6.3v-15.6l-5.8,15.6h-5.1l-5.8-15.6v15.6H157v-26h7.5l7.3,18l7.2-18H186.4z"/>
	<path class="st0" d="M210.3,173.5H196c0.1,1.3,0.5,2.3,1.2,2.9c0.7,0.7,1.6,1,2.7,1c1.6,0,2.7-0.7,3.3-2h6.7
		c-0.3,1.4-1,2.6-1.9,3.7c-0.9,1.1-2,1.9-3.4,2.6c-1.4,0.6-2.9,0.9-4.6,0.9c-2,0-3.8-0.4-5.4-1.3c-1.6-0.9-2.8-2.1-3.7-3.7
		c-0.9-1.6-1.3-3.5-1.3-5.6s0.4-4,1.3-5.6c0.9-1.6,2.1-2.8,3.7-3.7c1.6-0.9,3.4-1.3,5.4-1.3c2,0,3.8,0.4,5.3,1.3
		c1.6,0.8,2.8,2,3.6,3.6c0.9,1.6,1.3,3.4,1.3,5.4C210.5,172.3,210.4,172.9,210.3,173.5z M204,170c0-1.1-0.4-1.9-1.1-2.6
		s-1.7-1-2.8-1c-1.1,0-2,0.3-2.7,0.9c-0.7,0.6-1.2,1.5-1.4,2.6H204z"/>
	<path class="st0" d="M217.7,181.3c-1.6-0.9-2.9-2.1-3.8-3.7c-0.9-1.6-1.4-3.5-1.4-5.6c0-2.1,0.5-4,1.4-5.6c0.9-1.6,2.2-2.9,3.8-3.7
		s3.5-1.3,5.5-1.3s3.8,0.4,5.5,1.3s2.9,2.1,3.8,3.7s1.4,3.5,1.4,5.6s-0.5,4-1.4,5.6s-2.2,2.9-3.9,3.7c-1.6,0.9-3.5,1.3-5.5,1.3
		C221.2,182.6,219.3,182.2,217.7,181.3z M226.3,175.8c0.9-0.9,1.3-2.2,1.3-3.8s-0.4-2.9-1.2-3.8c-0.8-0.9-1.8-1.3-3.1-1.3
		c-1.2,0-2.3,0.4-3.1,1.3c-0.8,0.9-1.2,2.2-1.2,3.8c0,1.7,0.4,2.9,1.2,3.8c0.8,0.9,1.8,1.3,3,1.3
		C224.4,177.2,225.4,176.7,226.3,175.8z"/>
	<path class="st0" d="M267,161.7l-5.6,20.6h-7l-3.3-13.4l-3.4,13.4h-7l-5.6-20.6h6.3l2.9,14.8l3.5-14.8h6.7l3.5,14.7l2.9-14.7H267z"
		/>
</g>
<text transform="matrix(1 0 0 1 526.7197 357.0801)" style="font-family:'MyriadPro-Regular'; font-size:12px;">v</text>
</svg>
